<svg width="20" height="20" viewBox="0 0 20 20" fill="none" xmlns="http://www.w3.org/2000/svg">
<path d="M7.61884 3.33301H4.04717C3.85777 3.33301 3.67611 3.40825 3.54218 3.54218C3.40825 3.67611 3.33301 3.85777 3.33301 4.04717V7.61884C3.33301 8.01301 3.65301 8.33301 4.04717 8.33301H7.61884C7.80825 8.33301 7.9899 8.25776 8.12383 8.12383C8.25776 7.9899 8.33301 7.80825 8.33301 7.61884V4.04717C8.33301 3.85777 8.25776 3.67611 8.12383 3.54218C7.9899 3.40825 7.80825 3.33301 7.61884 3.33301ZM15.9522 3.33301H12.3805C12.1911 3.33301 12.0094 3.40825 11.8755 3.54218C11.7416 3.67611 11.6663 3.85777 11.6663 4.04717V7.61884C11.6663 8.01301 11.9863 8.33301 12.3805 8.33301H15.9522C16.1416 8.33301 16.3232 8.25776 16.4572 8.12383C16.5911 7.9899 16.6663 7.80825 16.6663 7.61884V4.04717C16.6663 3.85777 16.5911 3.67611 16.4572 3.54218C16.3232 3.40825 16.1416 3.33301 15.9522 3.33301ZM7.61884 11.6663H4.04717C3.85777 11.6663 3.67611 11.7416 3.54218 11.8755C3.40825 12.0094 3.33301 12.1911 3.33301 12.3805V15.9522C3.33301 16.3463 3.65301 16.6663 4.04717 16.6663H7.61884C7.80825 16.6663 7.9899 16.5911 8.12383 16.4572C8.25776 16.3232 8.33301 16.1416 8.33301 15.9522V12.3805C8.33301 12.1911 8.25776 12.0094 8.12383 11.8755C7.9899 11.7416 7.80825 11.6663 7.61884 11.6663ZM15.9522 11.6663H12.3805C12.1911 11.6663 12.0094 11.7416 11.8755 11.8755C11.7416 12.0094 11.6663 12.1911 11.6663 12.3805V15.9522C11.6663 16.3463 11.9863 16.6663 12.3805 16.6663H15.9522C16.1416 16.6663 16.3232 16.5911 16.4572 16.4572C16.5911 16.3232 16.6663 16.1416 16.6663 15.9522V12.3805C16.6663 12.1911 16.5911 12.0094 16.4572 11.8755C16.3232 11.7416 16.1416 11.6663 15.9522 11.6663Z" stroke="#009BA7" stroke-width="1.66667" stroke-linecap="round" stroke-linejoin="round"/>
</svg>
