<svg width="18" height="18" viewBox="0 0 18 18" fill="none" xmlns="http://www.w3.org/2000/svg">
<g clip-path="url(#clip0_2052_521)">
<mask id="mask0_2052_521" style="mask-type:luminance" maskUnits="userSpaceOnUse" x="0" y="0" width="18" height="18">
<path d="M0 0H18V18H0V0Z" fill="white"/>
</mask>
<g mask="url(#mask0_2052_521)">
<path fill-rule="evenodd" clip-rule="evenodd" d="M18 9C18 13.9703 13.9703 18 9 18C4.02975 18 0 13.9703 0 9C0 4.02975 4.02975 0 9 0C13.9703 0 18 4.02975 18 9ZM4.5 12.15H11.25V7.2C11.25 7.02272 11.2151 6.84717 11.1472 6.68338C11.0794 6.51959 10.98 6.37076 10.8546 6.24541C10.7292 6.12005 10.5804 6.02061 10.4166 5.95276C10.2528 5.88492 10.0773 5.85 9.9 5.85H3.15V10.8C3.15 11.158 3.29223 11.5014 3.54541 11.7546C3.67076 11.88 3.81959 11.9794 3.98338 12.0472C4.14717 12.1151 4.32272 12.15 4.5 12.15ZM12.15 10.35L14.85 12.15V5.85L12.15 7.65V10.35Z" fill="white"/>
</g>
</g>
<defs>
<clipPath id="clip0_2052_521">
<rect width="18" height="18" fill="white"/>
</clipPath>
</defs>
</svg>
