<svg width="21" height="21" viewBox="0 0 21 21" fill="none" xmlns="http://www.w3.org/2000/svg">
<path fill-rule="evenodd" clip-rule="evenodd" d="M10.5 18.36C12.6217 18.36 14.6566 17.5171 16.1569 16.0168C17.6571 14.5165 18.5 12.4817 18.5 10.36C18.5 8.23825 17.6571 6.20342 16.1569 4.70313C14.6566 3.20284 12.6217 2.35999 10.5 2.35999C8.37827 2.35999 6.34344 3.20284 4.84315 4.70313C3.34285 6.20342 2.5 8.23825 2.5 10.36C2.5 12.4817 3.34285 14.5165 4.84315 16.0168C6.34344 17.5171 8.37827 18.36 10.5 18.36ZM14.207 9.65299L11.207 6.65299C11.0184 6.47083 10.7658 6.37003 10.5036 6.37231C10.2414 6.37459 9.99059 6.47976 9.80518 6.66517C9.61977 6.85057 9.5146 7.10139 9.51233 7.36358C9.51005 7.62578 9.61084 7.87838 9.793 8.06699L11.086 9.35999H7.5C7.23478 9.35999 6.98043 9.46534 6.79289 9.65288C6.60536 9.84042 6.5 10.0948 6.5 10.36C6.5 10.6252 6.60536 10.8796 6.79289 11.0671C6.98043 11.2546 7.23478 11.36 7.5 11.36H11.086L9.793 12.653C9.69749 12.7452 9.62131 12.8556 9.5689 12.9776C9.51649 13.0996 9.4889 13.2308 9.48775 13.3636C9.4866 13.4964 9.5119 13.628 9.56218 13.7509C9.61246 13.8738 9.68671 13.9855 9.78061 14.0794C9.8745 14.1733 9.98615 14.2475 10.109 14.2978C10.2319 14.3481 10.3636 14.3734 10.4964 14.3722C10.6292 14.3711 10.7604 14.3435 10.8824 14.2911C11.0044 14.2387 11.1148 14.1625 11.207 14.067L14.207 11.067C14.3945 10.8795 14.4998 10.6251 14.4998 10.36C14.4998 10.0948 14.3945 9.84051 14.207 9.65299Z" fill="#F75E21"/>
</svg>
