<svg width="20" height="21" viewBox="0 0 20 21" fill="none" xmlns="http://www.w3.org/2000/svg">
<path fill-rule="evenodd" clip-rule="evenodd" d="M10 18.6428C12.1217 18.6428 14.1566 17.8 15.6569 16.2997C17.1571 14.7994 18 12.7646 18 10.6428C18 8.52109 17.1571 6.48626 15.6569 4.98597C14.1566 3.48568 12.1217 2.64282 10 2.64282C7.87827 2.64282 5.84344 3.48568 4.34315 4.98597C2.84285 6.48626 2 8.52109 2 10.6428C2 12.7646 2.84285 14.7994 4.34315 16.2997C5.84344 17.8 7.87827 18.6428 10 18.6428ZM13.707 9.93582L10.707 6.93582C10.5184 6.75366 10.2658 6.65287 10.0036 6.65515C9.7414 6.65743 9.49059 6.7626 9.30518 6.948C9.11977 7.13341 9.0146 7.38422 9.01233 7.64642C9.01005 7.90862 9.11084 8.16122 9.293 8.34982L10.586 9.64282H7C6.73478 9.64282 6.48043 9.74818 6.29289 9.93572C6.10536 10.1233 6 10.3776 6 10.6428C6 10.908 6.10536 11.1624 6.29289 11.3499C6.48043 11.5375 6.73478 11.6428 7 11.6428H10.586L9.293 12.9358C9.19749 13.0281 9.12131 13.1384 9.0689 13.2604C9.01649 13.3824 8.9889 13.5136 8.98775 13.6464C8.9866 13.7792 9.0119 13.9109 9.06218 14.0338C9.11246 14.1567 9.18671 14.2683 9.28061 14.3622C9.3745 14.4561 9.48615 14.5304 9.60905 14.5806C9.73194 14.6309 9.86362 14.6562 9.9964 14.6551C10.1292 14.6539 10.2604 14.6263 10.3824 14.5739C10.5044 14.5215 10.6148 14.4453 10.707 14.3498L13.707 11.3498C13.8945 11.1623 13.9998 10.908 13.9998 10.6428C13.9998 10.3777 13.8945 10.1234 13.707 9.93582Z" fill="white"/>
</svg>
