<svg width="12" height="14" viewBox="0 0 12 14" fill="none" xmlns="http://www.w3.org/2000/svg">
<path d="M5.33333 7.43333L4.73333 6.85C4.61111 6.72778 4.45844 6.66667 4.27533 6.66667C4.09222 6.66667 3.93378 6.73333 3.8 6.86667C3.67778 6.98889 3.61667 7.14444 3.61667 7.33333C3.61667 7.52222 3.67778 7.67778 3.8 7.8L5.53333 9.53333C5.66667 9.66667 5.82222 9.73333 6 9.73333C6.17778 9.73333 6.33333 9.66667 6.46667 9.53333L8.2 7.8C8.32222 7.67778 8.386 7.52511 8.39133 7.342C8.39667 7.15889 8.33289 7.00044 8.2 6.86667C8.07778 6.74444 7.92511 6.68044 7.742 6.67467C7.55889 6.66889 7.40044 6.72733 7.26667 6.85L6.66667 7.43333V5.33333C6.66667 5.14444 6.60267 4.98622 6.47467 4.85867C6.34667 4.73111 6.18844 4.66711 6 4.66667C5.81156 4.66622 5.65333 4.73022 5.52533 4.85867C5.39733 4.98711 5.33333 5.14533 5.33333 5.33333V7.43333ZM1.33333 13.3333C0.966667 13.3333 0.652889 13.2029 0.392 12.942C0.131111 12.6811 0.000444444 12.3671 0 12V2.66667C0 2.3 0.130667 1.98622 0.392 1.72533C0.653333 1.46444 0.967111 1.33378 1.33333 1.33333H4.13333C4.27778 0.933333 4.51956 0.611111 4.85867 0.366667C5.19778 0.122222 5.57822 0 6 0C6.42178 0 6.80244 0.122222 7.142 0.366667C7.48156 0.611111 7.72311 0.933333 7.86667 1.33333H10.6667C11.0333 1.33333 11.3473 1.464 11.6087 1.72533C11.87 1.98667 12.0004 2.30044 12 2.66667V12C12 12.3667 11.8696 12.6807 11.6087 12.942C11.3478 13.2033 11.0338 13.3338 10.6667 13.3333H1.33333ZM6 2.16667C6.14444 2.16667 6.264 2.11933 6.35867 2.02467C6.45333 1.93 6.50044 1.81067 6.5 1.66667C6.49956 1.52267 6.45222 1.40333 6.358 1.30867C6.26378 1.214 6.14444 1.16667 6 1.16667C5.85556 1.16667 5.73622 1.214 5.642 1.30867C5.54778 1.40333 5.50044 1.52267 5.5 1.66667C5.49956 1.81067 5.54689 1.93022 5.642 2.02533C5.73711 2.12044 5.85644 2.16756 6 2.16667Z" fill="white"/>
</svg>
