<svg width="24" height="24" viewBox="0 0 24 24" fill="none" xmlns="http://www.w3.org/2000/svg">
<path fill-rule="evenodd" clip-rule="evenodd" d="M15.4181 5.64252C15.2801 5.42216 15.077 5.25028 14.8368 5.1508C14.5966 5.05133 14.3314 5.02921 14.0781 5.08752L12.2801 5.50052C12.0958 5.54287 11.9043 5.54287 11.7201 5.50052L9.92205 5.08752C9.66872 5.02921 9.4035 5.05133 9.16333 5.1508C8.92315 5.25028 8.71997 5.42216 8.58205 5.64252L7.60205 7.20652C7.50205 7.36652 7.36705 7.50152 7.20705 7.60252L5.64305 8.58252C5.42307 8.72031 5.25144 8.92317 5.15199 9.16293C5.05253 9.4027 5.03019 9.66748 5.08805 9.92052L5.50105 11.7205C5.54325 11.9045 5.54325 12.0956 5.50105 12.2795L5.08805 14.0785C5.02996 14.3317 5.0522 14.5967 5.15166 14.8367C5.25112 15.0766 5.42288 15.2797 5.64305 15.4175L7.20705 16.3975C7.36705 16.4975 7.50205 16.6325 7.60305 16.7925L8.58305 18.3565C8.86505 18.8075 9.40305 19.0305 9.92205 18.9115L11.7201 18.4985C11.9043 18.4562 12.0958 18.4562 12.2801 18.4985L14.0791 18.9115C14.3322 18.9696 14.5972 18.9474 14.8372 18.8479C15.0772 18.7484 15.2802 18.5767 15.4181 18.3565L16.3981 16.7925C16.4981 16.6325 16.6331 16.4975 16.7931 16.3975L18.3581 15.4175C18.5782 15.2795 18.7499 15.0762 18.8492 14.8361C18.9485 14.5959 18.9705 14.3308 18.9121 14.0775L18.5001 12.2795C18.4577 12.0953 18.4577 11.9038 18.5001 11.7195L18.9131 9.92052C18.9712 9.66744 18.9492 9.40251 18.8499 9.16255C18.7506 8.92259 18.579 8.71951 18.3591 8.58152L16.7941 7.60152C16.6343 7.50134 16.4992 7.3663 16.3991 7.20652L15.4181 5.64252ZM14.9151 9.76952C14.9769 9.65579 14.9922 9.5225 14.9578 9.39769C14.9234 9.27289 14.8419 9.16631 14.7305 9.10036C14.6191 9.03442 14.4864 9.01427 14.3604 9.04414C14.2345 9.07401 14.125 9.15158 14.0551 9.26052L11.4401 13.6865L9.86105 12.1745C9.81421 12.1264 9.75816 12.0883 9.69624 12.0623C9.63433 12.0363 9.56782 12.0231 9.50068 12.0234C9.43354 12.0237 9.36715 12.0375 9.30546 12.064C9.24377 12.0905 9.18806 12.1292 9.14164 12.1777C9.09521 12.2262 9.05903 12.2835 9.03526 12.3463C9.01148 12.4091 9.0006 12.476 9.00325 12.5431C9.0059 12.6102 9.02204 12.6761 9.05069 12.7368C9.07935 12.7975 9.11995 12.8518 9.17005 12.8965L11.2041 14.8455C11.2585 14.8976 11.324 14.9367 11.3956 14.9598C11.4673 14.983 11.5433 14.9897 11.6179 14.9795C11.6925 14.9692 11.7638 14.9422 11.8265 14.9004C11.8893 14.8587 11.9417 14.8034 11.9801 14.7385L14.9151 9.76952Z" fill="white"/>
</svg>
