<svg width="41" height="41" viewBox="0 0 41 41" fill="none" xmlns="http://www.w3.org/2000/svg">
<path d="M39.2916 11.9584C36.2804 11.7928 33.2931 12.5755 30.75 14.1964C30.1349 13.4959 29.5029 12.7955 28.8366 12.1293L28.3412 11.668L28.5804 11.463C29.4158 10.7459 30.0111 9.78974 30.2861 8.72361C30.561 7.65748 30.5023 6.53266 30.1179 5.50095C29.5625 4.33617 28.6809 3.35773 27.58 2.68448C26.4792 2.01124 25.2065 1.67216 23.9166 1.70845V5.12511C24.5244 5.11665 25.1235 5.27051 25.652 5.5708C26.1806 5.8711 26.6194 6.30697 26.9233 6.83345C27.2137 7.51678 26.9233 8.26845 26.1204 9.07136L25.7274 9.43011C23.9456 7.94519 21.9894 6.68309 19.902 5.67178C15.5799 3.72428 13.3591 4.6297 12.2658 5.67178C11.9333 6.00626 11.6667 6.40035 11.4799 6.83345L11.1724 7.73886L8.71245 15.153C10.6599 20.0047 15.3749 28.6318 25.6249 32.3559L34.1666 29.5201C34.4547 29.4129 34.7084 29.2299 34.9012 28.9905L35.2599 28.683C37.7029 26.223 36.1312 21.4909 32.8512 16.8955C34.7988 15.7589 37.0413 15.2295 39.2916 15.3751V11.9584ZM32.817 26.2572H32.7145C31.5358 26.8893 26.6499 25.2834 21.1149 19.7484C20.5341 19.1676 19.9874 18.6039 19.492 18.0401C19.3212 17.8522 19.1674 17.6472 18.9966 17.4422L18.0912 16.3489L17.6129 15.6826C17.3737 15.358 17.1345 15.0334 16.9295 14.7259C16.7245 14.4184 16.6562 14.2818 16.5195 14.0597C16.3829 13.8376 16.1437 13.4789 15.9899 13.1884C15.8362 12.898 15.7679 12.7784 15.6654 12.5564C15.5629 12.3343 15.3749 12.078 15.2724 11.8389C15.1699 11.5997 15.1187 11.4459 15.0333 11.258C14.9479 11.0701 14.8454 10.7968 14.777 10.5747C14.7087 10.3526 14.6916 10.2501 14.6574 10.0793C14.6233 9.90845 14.5549 9.66928 14.5208 9.49845C14.5126 9.3619 14.5126 9.22499 14.5208 9.08845C14.5047 8.94083 14.5047 8.7919 14.5208 8.64428L14.7087 8.1147C14.9991 7.8072 16.2633 7.72178 18.5183 8.74678C20.0243 9.47265 21.45 10.3544 22.772 11.3776C22.0517 11.6945 21.284 11.8908 20.4999 11.9584V15.3751C22.3152 15.2743 24.0767 14.7223 25.6249 13.7693L26.462 14.5551C27.2137 15.2897 27.8799 16.0243 28.4949 16.7247C27.4636 18.4806 27.0544 20.5329 27.3333 22.5501L30.75 21.8839C30.6334 21.2399 30.6334 20.5803 30.75 19.9364C32.9537 23.3018 33.3637 25.7276 32.817 26.2572ZM7.51661 18.7918L3.70703 30.2376C3.43207 31.078 3.35988 31.9714 3.49635 32.845C3.63282 33.7186 3.97409 34.5475 4.49226 35.2639C5.01042 35.9803 5.69077 36.564 6.47769 36.9671C7.26462 37.3703 8.13577 37.5815 9.01995 37.5834C9.60121 37.5781 10.1779 37.48 10.7283 37.293L21.8666 33.5859C15.5802 30.3754 10.5341 25.1731 7.51661 18.7918Z" fill="white"/>
</svg>
