<svg width="96" height="96" viewBox="0 0 96 96" fill="none" xmlns="http://www.w3.org/2000/svg">
<g clip-path="url(#clip0_918_8360)">
<path d="M48.0002 5.33301C39.5615 5.33301 31.3123 7.83536 24.2959 12.5236C17.2794 17.2119 11.8107 23.8755 8.58132 31.6718C5.35198 39.4682 4.50704 48.047 6.15334 56.3235C7.79965 64.6001 11.8633 72.2025 17.8303 78.1696C23.7973 84.1366 31.3998 88.2002 39.6763 89.8465C47.9529 91.4928 56.5317 90.6479 64.328 87.4185C72.1243 84.1892 78.7879 78.7205 83.4762 71.704C88.1645 64.6875 90.6669 56.4383 90.6669 47.9997C90.6669 36.6838 86.1716 25.8313 78.1701 17.8298C70.1685 9.82823 59.3161 5.33301 48.0002 5.33301ZM72.0002 38.0797C72.0002 39.029 71.7187 39.9571 71.1912 40.7464C70.6638 41.5358 69.9142 42.151 69.0371 42.5143C68.16 42.8776 67.1949 42.9727 66.2637 42.7874C65.3326 42.6022 64.4774 42.1451 63.8061 41.4738C63.1348 40.8025 62.6776 39.9472 62.4924 39.0161C62.3072 38.085 62.4023 37.1199 62.7656 36.2428C63.1289 35.3657 63.7441 34.6161 64.5334 34.0886C65.3228 33.5612 66.2508 33.2797 67.2002 33.2797C68.4732 33.2797 69.6941 33.7854 70.5943 34.6856C71.4945 35.5857 72.0002 36.8066 72.0002 38.0797ZM30.5335 42.8797C29.5842 42.8797 28.6561 42.5982 27.8668 42.0707C27.0774 41.5433 26.4622 40.7936 26.0989 39.9166C25.7356 39.0395 25.6405 38.0744 25.8257 37.1432C26.011 36.2121 26.4681 35.3569 27.1394 34.6856C27.8107 34.0143 28.666 33.5571 29.5971 33.3719C30.5282 33.1867 31.4933 33.2818 32.3704 33.6451C33.2475 34.0084 33.9971 34.6236 34.5246 35.4129C35.052 36.2023 35.3335 37.1303 35.3335 38.0797C35.3337 38.7191 35.2061 39.3521 34.9582 39.9415C34.7103 40.531 34.3472 41.0649 33.8901 41.5121C33.4331 41.9592 32.8912 42.3105 32.2965 42.5454C31.7018 42.7802 31.0661 42.8939 30.4268 42.8797H30.5335ZM67.8669 62.9597C68.2912 63.5255 68.4734 64.2367 68.3734 64.9368C68.2734 65.6369 67.8993 66.2687 67.3335 66.693C66.7677 67.1174 66.0565 67.2996 65.3564 67.1995C64.6563 67.0995 64.0245 66.7255 63.6002 66.1597C61.8405 63.8046 59.5495 61.8984 56.9137 60.5964C54.2778 59.2944 51.3717 58.6334 48.4321 58.6672C45.4924 58.701 42.6023 59.4286 39.9971 60.7909C37.3919 62.1531 35.1452 64.1114 33.4402 66.5063C33.03 67.0827 32.4076 67.4726 31.71 67.5901C31.0123 67.7076 30.2966 67.5432 29.7202 67.133C29.1438 66.7228 28.7539 66.1004 28.6364 65.4028C28.5189 64.7052 28.6833 63.9894 29.0935 63.413C31.2852 60.3341 34.1731 57.8164 37.5219 56.0647C40.8708 54.3131 44.5859 53.3771 48.365 53.3329C52.144 53.2887 55.8801 54.1376 59.2689 55.8105C62.6578 57.4833 65.6038 59.9329 67.8669 62.9597Z" fill="#009BA7"/>
</g>
<defs>
<clipPath id="clip0_918_8360">
<rect width="96" height="96" fill="white"/>
</clipPath>
</defs>
</svg>
