<svg width="16" height="17" viewBox="0 0 16 17" fill="none" xmlns="http://www.w3.org/2000/svg">
<path fill-rule="evenodd" clip-rule="evenodd" d="M9.49992 2.16667C9.49992 2.12246 9.48236 2.08007 9.4511 2.04882C9.41985 2.01756 9.37745 2 9.33325 2H4.66659C4.18036 2 3.71404 2.19315 3.37022 2.53697C3.02641 2.88079 2.83325 3.3471 2.83325 3.83333V13.1667C2.83325 13.6529 3.02641 14.1192 3.37022 14.463C3.71404 14.8068 4.18036 15 4.66659 15H11.3333C11.8195 15 12.2858 14.8068 12.6296 14.463C12.9734 14.1192 13.1666 13.6529 13.1666 13.1667V6.598C13.1666 6.5538 13.149 6.5114 13.1178 6.48015C13.0865 6.44889 13.0441 6.43133 12.9999 6.43133H9.99992C9.86731 6.43133 9.74013 6.37865 9.64637 6.28489C9.5526 6.19112 9.49992 6.06394 9.49992 5.93133V2.16667ZM9.99992 8.66667C10.1325 8.66667 10.2597 8.71935 10.3535 8.81311C10.4472 8.90688 10.4999 9.03406 10.4999 9.16667C10.4999 9.29927 10.4472 9.42645 10.3535 9.52022C10.2597 9.61399 10.1325 9.66667 9.99992 9.66667H5.99992C5.86731 9.66667 5.74013 9.61399 5.64637 9.52022C5.5526 9.42645 5.49992 9.29927 5.49992 9.16667C5.49992 9.03406 5.5526 8.90688 5.64637 8.81311C5.74013 8.71935 5.86731 8.66667 5.99992 8.66667H9.99992ZM9.99992 11.3333C10.1325 11.3333 10.2597 11.386 10.3535 11.4798C10.4472 11.5735 10.4999 11.7007 10.4999 11.8333C10.4999 11.9659 10.4472 12.0931 10.3535 12.1869C10.2597 12.2807 10.1325 12.3333 9.99992 12.3333H5.99992C5.86731 12.3333 5.74013 12.2807 5.64637 12.1869C5.5526 12.0931 5.49992 11.9659 5.49992 11.8333C5.49992 11.7007 5.5526 11.5735 5.64637 11.4798C5.74013 11.386 5.86731 11.3333 5.99992 11.3333H9.99992Z" fill="white"/>
<path d="M10.5 2.38272C10.5 2.26005 10.6287 2.18205 10.724 2.25872C10.8049 2.32405 10.8767 2.40005 10.9393 2.48672L12.948 5.28472C12.9933 5.34872 12.944 5.43139 12.8653 5.43139H10.6667C10.6225 5.43139 10.5801 5.41383 10.5488 5.38257C10.5176 5.35131 10.5 5.30892 10.5 5.26472V2.38272Z" fill="white"/>
</svg>
