<svg width="11" height="13" viewBox="0 0 11 13" fill="none" xmlns="http://www.w3.org/2000/svg">
<path fill-rule="evenodd" clip-rule="evenodd" d="M6.66667 0.166667C6.66667 0.122464 6.64911 0.0800716 6.61785 0.0488156C6.5866 0.0175595 6.5442 0 6.5 0H1.83333C1.3471 0 0.880787 0.193154 0.536971 0.536971C0.193154 0.880788 0 1.3471 0 1.83333V11.1667C0 11.6529 0.193154 12.1192 0.536971 12.463C0.880787 12.8068 1.3471 13 1.83333 13H8.5C8.98623 13 9.45255 12.8068 9.79636 12.463C10.1402 12.1192 10.3333 11.6529 10.3333 11.1667V4.598C10.3333 4.5538 10.3158 4.5114 10.2845 4.48015C10.2533 4.44889 10.2109 4.43133 10.1667 4.43133H7.16667C7.03406 4.43133 6.90688 4.37865 6.81311 4.28489C6.71935 4.19112 6.66667 4.06394 6.66667 3.93133V0.166667ZM7.16667 6.66667C7.29927 6.66667 7.42645 6.71935 7.52022 6.81311C7.61399 6.90688 7.66667 7.03406 7.66667 7.16667C7.66667 7.29927 7.61399 7.42645 7.52022 7.52022C7.42645 7.61399 7.29927 7.66667 7.16667 7.66667H3.16667C3.03406 7.66667 2.90688 7.61399 2.81311 7.52022C2.71935 7.42645 2.66667 7.29927 2.66667 7.16667C2.66667 7.03406 2.71935 6.90688 2.81311 6.81311C2.90688 6.71935 3.03406 6.66667 3.16667 6.66667H7.16667ZM7.16667 9.33333C7.29927 9.33333 7.42645 9.38601 7.52022 9.47978C7.61399 9.57355 7.66667 9.70073 7.66667 9.83333C7.66667 9.96594 7.61399 10.0931 7.52022 10.1869C7.42645 10.2807 7.29927 10.3333 7.16667 10.3333H3.16667C3.03406 10.3333 2.90688 10.2807 2.81311 10.1869C2.71935 10.0931 2.66667 9.96594 2.66667 9.83333C2.66667 9.70073 2.71935 9.57355 2.81311 9.47978C2.90688 9.38601 3.03406 9.33333 3.16667 9.33333H7.16667Z" fill="white"/>
</svg>
