<svg width="236" height="244" viewBox="0 0 236 244" fill="none" xmlns="http://www.w3.org/2000/svg">
<path d="M24.8361 106.545C24.8361 106.545 66.3706 104.882 75.3463 36.6079C83.317 -24.0259 153.355 3.57241 173.601 27.7425C199.827 59.0528 185.846 112.913 219.773 119.717C253.7 126.521 231.545 202.171 180.046 194.93C115.983 185.923 131.483 223.358 112.252 239.202C98.4497 250.574 41.857 239.627 39.9708 198.347C38.3836 163.61 23.7309 163.72 13.345 159.781C-1.63393 154.101 -11.0723 112.96 24.8361 106.545Z" fill="#D3E7E7"/>
<path fill-rule="evenodd" clip-rule="evenodd" d="M118.001 63.668C150.219 63.668 176.335 89.7838 176.335 122.001C176.335 154.219 150.219 180.335 118.001 180.335C85.7838 180.335 59.668 154.219 59.668 122.001C59.668 89.7838 85.7838 63.668 118.001 63.668ZM118.001 127.835C110.898 127.835 104.038 130.428 98.7105 135.126C97.5501 136.15 96.8439 137.592 96.7471 139.136C96.6503 140.68 97.1708 142.2 98.1942 143.36C99.2176 144.52 100.66 145.227 102.204 145.323C103.748 145.42 105.268 144.9 106.428 143.876C109.624 141.057 113.739 139.502 118.001 139.501C122.265 139.491 126.384 141.048 129.575 143.876C130.735 144.9 132.255 145.422 133.799 145.326C135.344 145.229 136.787 144.523 137.811 143.363C138.835 142.203 139.357 140.683 139.261 139.138C139.164 137.594 138.458 136.15 137.298 135.126C131.969 130.426 125.107 127.833 118.001 127.835ZM97.5846 98.668C95.264 98.668 93.0384 99.5898 91.3975 101.231C89.7565 102.872 88.8346 105.097 88.8346 107.418C88.8346 109.739 89.7565 111.964 91.3975 113.605C93.0384 115.246 95.264 116.168 97.5846 116.168C99.9053 116.168 102.131 115.246 103.772 113.605C105.413 111.964 106.335 109.739 106.335 107.418C106.335 105.097 105.413 102.872 103.772 101.231C102.131 99.5898 99.9053 98.668 97.5846 98.668ZM138.418 98.668C136.097 98.668 133.872 99.5898 132.231 101.231C130.59 102.872 129.668 105.097 129.668 107.418C129.668 109.739 130.59 111.964 132.231 113.605C133.872 115.246 136.097 116.168 138.418 116.168C140.739 116.168 142.964 115.246 144.605 113.605C146.246 111.964 147.168 109.739 147.168 107.418C147.168 105.097 146.246 102.872 144.605 101.231C142.964 99.5898 140.739 98.668 138.418 98.668Z" fill="#009BA7"/>
</svg>
