<svg width="12" height="12" viewBox="0 0 12 12" fill="none" xmlns="http://www.w3.org/2000/svg">
<path fill-rule="evenodd" clip-rule="evenodd" d="M11 2.33333C10.7348 2.33333 10.4804 2.43869 10.2929 2.62623C10.1054 2.81376 10 3.06812 10 3.33333V4H12V3.33333C12 3.06812 11.8946 2.81376 11.7071 2.62623C11.5196 2.43869 11.2652 2.33333 11 2.33333ZM12 4.66667H10V10.1667L11 11.6667L12 10.1667V4.66667ZM0 1V11C0 11.2652 0.105357 11.5196 0.292893 11.7071C0.48043 11.8946 0.734784 12 1 12H8.33333C8.59855 12 8.8529 11.8946 9.04044 11.7071C9.22798 11.5196 9.33333 11.2652 9.33333 11V1C9.33333 0.734784 9.22798 0.48043 9.04044 0.292893C8.8529 0.105357 8.59855 0 8.33333 0H1C0.734784 0 0.48043 0.105357 0.292893 0.292893C0.105357 0.48043 0 0.734784 0 1ZM4.66667 3C4.66667 2.91159 4.70179 2.82681 4.7643 2.7643C4.82681 2.70179 4.91159 2.66667 5 2.66667H7.66667C7.75507 2.66667 7.83986 2.70179 7.90237 2.7643C7.96488 2.82681 8 2.91159 8 3C8 3.08841 7.96488 3.17319 7.90237 3.2357C7.83986 3.29821 7.75507 3.33333 7.66667 3.33333H5C4.91159 3.33333 4.82681 3.29821 4.7643 3.2357C4.70179 3.17319 4.66667 3.08841 4.66667 3ZM5 4C4.91159 4 4.82681 4.03512 4.7643 4.09763C4.70179 4.16014 4.66667 4.24493 4.66667 4.33333C4.66667 4.42174 4.70179 4.50652 4.7643 4.56904C4.82681 4.63155 4.91159 4.66667 5 4.66667H7.66667C7.75507 4.66667 7.83986 4.63155 7.90237 4.56904C7.96488 4.50652 8 4.42174 8 4.33333C8 4.24493 7.96488 4.16014 7.90237 4.09763C7.83986 4.03512 7.75507 4 7.66667 4H5ZM4.66667 7.33333C4.66667 7.24493 4.70179 7.16014 4.7643 7.09763C4.82681 7.03512 4.91159 7 5 7H7.66667C7.75507 7 7.83986 7.03512 7.90237 7.09763C7.96488 7.16014 8 7.24493 8 7.33333C8 7.42174 7.96488 7.50652 7.90237 7.56904C7.83986 7.63155 7.75507 7.66667 7.66667 7.66667H5C4.91159 7.66667 4.82681 7.63155 4.7643 7.56904C4.70179 7.50652 4.66667 7.42174 4.66667 7.33333ZM5 8.33333C4.91159 8.33333 4.82681 8.36845 4.7643 8.43096C4.70179 8.49348 4.66667 8.57826 4.66667 8.66667C4.66667 8.75507 4.70179 8.83986 4.7643 8.90237C4.82681 8.96488 4.91159 9 5 9H7.66667C7.75507 9 7.83986 8.96488 7.90237 8.90237C7.96488 8.83986 8 8.75507 8 8.66667C8 8.57826 7.96488 8.49348 7.90237 8.43096C7.83986 8.36845 7.75507 8.33333 7.66667 8.33333H5ZM2 7.33333V8.33333H3V7.33333H2ZM1.66667 6.66667H3.33333C3.42174 6.66667 3.50652 6.70179 3.56904 6.7643C3.63155 6.82681 3.66667 6.91159 3.66667 7V8.66667C3.66667 8.75507 3.63155 8.83986 3.56904 8.90237C3.50652 8.96488 3.42174 9 3.33333 9H1.66667C1.57826 9 1.49348 8.96488 1.43096 8.90237C1.36845 8.83986 1.33333 8.75507 1.33333 8.66667V7C1.33333 6.91159 1.36845 6.82681 1.43096 6.7643C1.49348 6.70179 1.57826 6.66667 1.66667 6.66667ZM3.90233 3.23567C3.96305 3.1728 3.99665 3.0886 3.99589 3.0012C3.99513 2.9138 3.96008 2.8302 3.89827 2.76839C3.83647 2.70659 3.75287 2.67154 3.66547 2.67078C3.57807 2.67002 3.49387 2.70361 3.431 2.76433L2.33333 3.862L1.90233 3.431C1.83947 3.37028 1.75527 3.33668 1.66787 3.33744C1.58047 3.3382 1.49686 3.37326 1.43506 3.43506C1.37326 3.49686 1.3382 3.58047 1.33744 3.66787C1.33668 3.75527 1.37028 3.83947 1.431 3.90233L2.33333 4.80467L3.90233 3.23567Z" fill="white"/>
</svg>
