<svg width="11" height="14" viewBox="0 0 11 14" fill="none" xmlns="http://www.w3.org/2000/svg">
<path d="M1.33333 0C0.979711 0 0.640573 0.140476 0.390524 0.390524C0.140476 0.640573 0 0.979711 0 1.33333V12C0 12.3536 0.140476 12.6928 0.390524 12.9428C0.640573 13.1929 0.979711 13.3333 1.33333 13.3333H9.33333C9.68696 13.3333 10.0261 13.1929 10.2761 12.9428C10.5262 12.6928 10.6667 12.3536 10.6667 12V5.21867C10.6666 4.86507 10.5261 4.52599 10.276 4.276L6.39067 0.390667C6.14068 0.140601 5.80159 7.55165e-05 5.448 0H1.33333ZM1 1.33333C1 1.24493 1.03512 1.16014 1.09763 1.09763C1.16014 1.03512 1.24493 1 1.33333 1H5.33333V4C5.33333 4.35362 5.47381 4.69276 5.72386 4.94281C5.97391 5.19286 6.31305 5.33333 6.66667 5.33333H9.66667V12C9.66667 12.0884 9.63155 12.1732 9.56904 12.2357C9.50652 12.2982 9.42174 12.3333 9.33333 12.3333H1.33333C1.24493 12.3333 1.16014 12.2982 1.09763 12.2357C1.03512 12.1732 1 12.0884 1 12V1.33333ZM8.92 4.33333H6.66667C6.57826 4.33333 6.49348 4.29821 6.43096 4.2357C6.36845 4.17319 6.33333 4.08841 6.33333 4V1.74667L8.92 4.33333Z" fill="white"/>
</svg>
