<svg width="20" height="20" viewBox="0 0 20 20" fill="none" xmlns="http://www.w3.org/2000/svg">
<path d="M17.7082 10.0002H7.41234M3.77817 10.0002H2.2915M3.77817 10.0002C3.77817 9.51842 3.96957 9.05635 4.31026 8.71566C4.65095 8.37497 5.11303 8.18357 5.59484 8.18357C6.07665 8.18357 6.53872 8.37497 6.87941 8.71566C7.22011 9.05635 7.4115 9.51842 7.4115 10.0002C7.4115 10.482 7.22011 10.9441 6.87941 11.2848C6.53872 11.6255 6.07665 11.8169 5.59484 11.8169C5.11303 11.8169 4.65095 11.6255 4.31026 11.2848C3.96957 10.9441 3.77817 10.482 3.77817 10.0002ZM17.7082 15.5061H12.9182M12.9182 15.5061C12.9182 15.988 12.7263 16.4506 12.3855 16.7914C12.0448 17.1321 11.5826 17.3236 11.1007 17.3236C10.6189 17.3236 10.1568 17.1313 9.81609 16.7906C9.4754 16.45 9.284 15.9879 9.284 15.5061M12.9182 15.5061C12.9182 15.0241 12.7263 14.5624 12.3855 14.2216C12.0448 13.8808 11.5826 13.6894 11.1007 13.6894C10.6189 13.6894 10.1568 13.8808 9.81609 14.2215C9.4754 14.5622 9.284 15.0243 9.284 15.5061M9.284 15.5061H2.2915M17.7082 4.4944H15.1207M11.4865 4.4944H2.2915M11.4865 4.4944C11.4865 4.01259 11.6779 3.55051 12.0186 3.20982C12.3593 2.86913 12.8214 2.67773 13.3032 2.67773C13.5417 2.67773 13.778 2.72472 13.9984 2.81602C14.2188 2.90732 14.4191 3.04113 14.5877 3.20982C14.7564 3.37852 14.8903 3.57878 14.9816 3.79919C15.0728 4.0196 15.1198 4.25583 15.1198 4.4944C15.1198 4.73297 15.0728 4.9692 14.9816 5.18961C14.8903 5.41002 14.7564 5.61028 14.5877 5.77898C14.4191 5.94767 14.2188 6.08149 13.9984 6.17278C13.778 6.26408 13.5417 6.31107 13.3032 6.31107C12.8214 6.31107 12.3593 6.11967 12.0186 5.77898C11.6779 5.43829 11.4865 4.97621 11.4865 4.4944Z" stroke="#777D7D" stroke-width="1.25" stroke-miterlimit="10" stroke-linecap="round"/>
</svg>
