<svg width="58" height="58" viewBox="0 0 58 58" fill="none" xmlns="http://www.w3.org/2000/svg">
<path d="M39.8749 46.953C41.1252 46.4604 42.3369 45.875 43.4999 45.2017V54.3752C43.4999 54.8559 43.309 55.3169 42.9691 55.6568C42.6291 55.9967 42.1681 56.1877 41.6874 56.1877C41.2067 56.1877 40.7457 55.9967 40.4058 55.6568C40.0659 55.3169 39.8749 54.8559 39.8749 54.3752V46.953ZM42.5393 26.9181L29.8518 20.1507C29.4285 19.9344 28.9372 19.8932 28.4838 20.0357C28.0303 20.1783 27.651 20.4933 27.4276 20.9128C27.2041 21.3323 27.1544 21.8228 27.2892 22.2787C27.424 22.7345 27.7324 23.1191 28.148 23.3497L38.7421 29.0002L42.5937 26.9475L42.5393 26.9181ZM57.0393 20.1507L29.8518 5.65066C29.5896 5.51102 29.297 5.43799 28.9999 5.43799C28.7028 5.43799 28.4103 5.51102 28.148 5.65066L0.960547 20.1507C0.670557 20.3052 0.428036 20.5357 0.258928 20.8174C0.0898204 21.0992 0.000488281 21.4216 0.000488281 21.7502C0.000488281 22.0788 0.0898204 22.4012 0.258928 22.683C0.428036 22.9647 0.670557 23.1952 0.960547 23.3497L7.24992 26.7051V37.6753C7.24782 38.5656 7.57551 39.4252 8.16977 40.0882C11.1377 43.3937 17.7873 48.9377 28.9999 48.9377C32.7177 48.9684 36.4077 48.295 39.8749 46.953V29.6051L38.7421 29.0002L28.9999 34.1953L9.93016 24.0158L5.66398 21.7502L28.9999 9.30511L52.3359 21.7502L48.081 24.0158H48.0674L42.5937 26.9475C42.8693 27.1066 43.0981 27.3355 43.2572 27.6111C43.4163 27.8867 43.5 28.1994 43.4999 28.5176V45.2017C45.8635 43.8374 47.9993 42.1121 49.8301 40.0882C50.4243 39.4252 50.752 38.5656 50.7499 37.6753V26.7051L57.0393 23.3497C57.3293 23.1952 57.5718 22.9647 57.7409 22.683C57.91 22.4012 57.9994 22.0788 57.9994 21.7502C57.9994 21.4216 57.91 21.0992 57.7409 20.8174C57.5718 20.5357 57.3293 20.3052 57.0393 20.1507Z" fill="white"/>
</svg>
