<svg width="32" height="32" viewBox="0 0 32 32" fill="none" xmlns="http://www.w3.org/2000/svg">
<path d="M16.0001 5.33317C21.8814 5.33317 26.6667 10.1185 26.6667 15.9998C26.6667 21.8812 21.8814 26.6665 16.0001 26.6665C10.1187 26.6665 5.33341 21.8812 5.33341 15.9998C5.33341 10.1185 10.1187 5.33317 16.0001 5.33317ZM16.0001 2.6665C8.63608 2.6665 2.66675 8.63584 2.66675 15.9998C2.66675 23.3638 8.63608 29.3332 16.0001 29.3332C23.3641 29.3332 29.3334 23.3638 29.3334 15.9998C29.3334 8.63584 23.3641 2.6665 16.0001 2.6665ZM21.0667 20.5332L17.3334 15.5558V9.33317H14.6667V16.4438L18.9334 22.1318L21.0667 20.5332Z" fill="#797A7B"/>
</svg>
