<svg width="20" height="20" viewBox="0 0 20 20" fill="none" xmlns="http://www.w3.org/2000/svg">
<path d="M7.61933 3.33301H4.04766C3.85825 3.33301 3.6766 3.40825 3.54267 3.54218C3.40874 3.67611 3.3335 3.85777 3.3335 4.04717V7.61884C3.3335 8.01301 3.6535 8.33301 4.04766 8.33301H7.61933C7.80874 8.33301 7.99039 8.25776 8.12432 8.12383C8.25825 7.9899 8.3335 7.80825 8.3335 7.61884V4.04717C8.3335 3.85777 8.25825 3.67611 8.12432 3.54218C7.99039 3.40825 7.80874 3.33301 7.61933 3.33301ZM15.9527 3.33301H12.381C12.1916 3.33301 12.0099 3.40825 11.876 3.54218C11.7421 3.67611 11.6668 3.85777 11.6668 4.04717V7.61884C11.6668 8.01301 11.9868 8.33301 12.381 8.33301H15.9527C16.1421 8.33301 16.3237 8.25776 16.4577 8.12383C16.5916 7.9899 16.6668 7.80825 16.6668 7.61884V4.04717C16.6668 3.85777 16.5916 3.67611 16.4577 3.54218C16.3237 3.40825 16.1421 3.33301 15.9527 3.33301ZM7.61933 11.6663H4.04766C3.85825 11.6663 3.6766 11.7416 3.54267 11.8755C3.40874 12.0094 3.3335 12.1911 3.3335 12.3805V15.9522C3.3335 16.3463 3.6535 16.6663 4.04766 16.6663H7.61933C7.80874 16.6663 7.99039 16.5911 8.12432 16.4572C8.25825 16.3232 8.3335 16.1416 8.3335 15.9522V12.3805C8.3335 12.1911 8.25825 12.0094 8.12432 11.8755C7.99039 11.7416 7.80874 11.6663 7.61933 11.6663ZM15.9527 11.6663H12.381C12.1916 11.6663 12.0099 11.7416 11.876 11.8755C11.7421 12.0094 11.6668 12.1911 11.6668 12.3805V15.9522C11.6668 16.3463 11.9868 16.6663 12.381 16.6663H15.9527C16.1421 16.6663 16.3237 16.5911 16.4577 16.4572C16.5916 16.3232 16.6668 16.1416 16.6668 15.9522V12.3805C16.6668 12.1911 16.5916 12.0094 16.4577 11.8755C16.3237 11.7416 16.1421 11.6663 15.9527 11.6663Z" stroke="#777D7D" stroke-width="1.66667" stroke-linecap="round" stroke-linejoin="round"/>
</svg>
