<svg width="12" height="13" viewBox="0 0 12 13" fill="none" xmlns="http://www.w3.org/2000/svg">
<g clip-path="url(#clip0_856_1836)">
<path d="M2.7999 6.89998H2.3999V6.09998H2.7999C2.90599 6.09998 3.00773 6.14212 3.08275 6.21713C3.15776 6.29215 3.1999 6.39389 3.1999 6.49998C3.1999 6.60606 3.15776 6.7078 3.08275 6.78282C3.00773 6.85783 2.90599 6.89998 2.7999 6.89998ZM5.5999 8.49998V6.09998H5.9999C6.10599 6.09998 6.20773 6.14212 6.28275 6.21713C6.35776 6.29215 6.3999 6.39389 6.3999 6.49998V8.09998C6.3999 8.20606 6.35776 8.3078 6.28275 8.38282C6.20773 8.45783 6.10599 8.49998 5.9999 8.49998H5.5999Z" fill="white"/>
<path fill-rule="evenodd" clip-rule="evenodd" d="M0.800049 1.7C0.800049 1.38174 0.926477 1.07652 1.15152 0.851472C1.37656 0.626428 1.68179 0.5 2.00005 0.5L8.56565 0.5L11.2 3.1344V11.3C11.2 11.6183 11.0736 11.9235 10.8486 12.1485C10.6235 12.3736 10.3183 12.5 10 12.5H2.00005C1.68179 12.5 1.37656 12.3736 1.15152 12.1485C0.926477 11.9235 0.800049 11.6183 0.800049 11.3V1.7ZM2.80005 5.3H1.60005V9.3H2.40005V7.7H2.80005C3.11831 7.7 3.42353 7.57357 3.64858 7.34853C3.87362 7.12348 4.00005 6.81826 4.00005 6.5C4.00005 6.18174 3.87362 5.87652 3.64858 5.65147C3.42353 5.42643 3.11831 5.3 2.80005 5.3ZM6.00005 5.3H4.80005V9.3H6.00005C6.31831 9.3 6.62353 9.17357 6.84858 8.94853C7.07362 8.72348 7.20005 8.41826 7.20005 8.1V6.5C7.20005 6.18174 7.07362 5.87652 6.84858 5.65147C6.62353 5.42643 6.31831 5.3 6.00005 5.3ZM8.00005 9.3V5.3H10.4V6.1H8.80005V6.9H9.60005V7.7H8.80005V9.3H8.00005Z" fill="white"/>
</g>
<defs>
<clipPath id="clip0_856_1836">
<rect width="12" height="12" fill="white" transform="translate(0 0.5)"/>
</clipPath>
</defs>
</svg>
