<svg width="16" height="16" viewBox="0 0 16 16" fill="none" xmlns="http://www.w3.org/2000/svg">
<path d="M4.08333 2C3.5308 2 3.0009 2.21949 2.61019 2.61019C2.21949 3.0009 2 3.5308 2 4.08333V11.9167C2 12.3687 2.144 12.7867 2.38833 13.1283L7.175 8.34167C7.28334 8.23332 7.41195 8.14737 7.55351 8.08873C7.69506 8.0301 7.84678 7.99992 8 7.99992C8.15322 7.99992 8.30494 8.0301 8.44649 8.08873C8.58805 8.14737 8.71666 8.23332 8.825 8.34167L13.6117 13.1283C13.8649 12.7751 14.0007 12.3513 14 11.9167V4.08333C14 3.5308 13.7805 3.0009 13.3898 2.61019C12.9991 2.21949 12.4692 2 11.9167 2H4.08333ZM11.5 5.83333C11.5 6.18696 11.3595 6.52609 11.1095 6.77614C10.8594 7.02619 10.5203 7.16667 10.1667 7.16667C9.81305 7.16667 9.47391 7.02619 9.22386 6.77614C8.97381 6.52609 8.83333 6.18696 8.83333 5.83333C8.83333 5.47971 8.97381 5.14057 9.22386 4.89052C9.47391 4.64048 9.81305 4.5 10.1667 4.5C10.5203 4.5 10.8594 4.64048 11.1095 4.89052C11.3595 5.14057 11.5 5.47971 11.5 5.83333ZM13.0007 13.696L8.23567 8.931C8.17316 8.86851 8.08839 8.8334 8 8.8334C7.91161 8.8334 7.82684 8.86851 7.76433 8.931L2.99933 13.696C3.32557 13.8957 3.70083 14.0009 4.08333 14H11.9167C12.2992 14.0009 12.6744 13.8957 13.0007 13.696Z" fill="white"/>
</svg>
