<svg width="16" height="16" viewBox="0 0 16 16" fill="none" xmlns="http://www.w3.org/2000/svg">
<path fill-rule="evenodd" clip-rule="evenodd" d="M2.02067 2.83325C1.98242 2.9765 1.98242 3.1505 1.98242 3.49925C1.98242 3.848 1.98242 4.022 2.02067 4.16525C2.07182 4.35585 2.1722 4.52964 2.31174 4.66918C2.45128 4.80872 2.62507 4.90911 2.81567 4.96025C2.95892 4.9985 3.13292 4.9985 3.48167 4.9985C3.83042 4.9985 4.00442 4.9985 4.14767 4.96025C4.33827 4.90911 4.51206 4.80872 4.65161 4.66918C4.79115 4.52964 4.89153 4.35585 4.94267 4.16525C4.98092 4.022 4.98092 3.848 4.98092 3.49925C4.98092 3.1505 4.98092 2.9765 4.94342 2.83325C4.89221 2.64256 4.79172 2.46871 4.65204 2.32916C4.51236 2.18961 4.33841 2.08928 4.14767 2.03825C4.00367 2 3.82967 2 3.48092 2C3.13217 2 2.95817 2 2.81492 2.03825C2.62432 2.08939 2.45053 2.18978 2.31099 2.32932C2.17145 2.46886 2.07182 2.64265 2.02067 2.83325ZM3.10742 4.24325C3.19142 4.247 3.30242 4.247 3.48317 4.247C3.66392 4.247 3.77567 4.247 3.85892 4.24325C3.93917 4.2395 3.95792 4.2335 3.95492 4.23425C4.01861 4.21724 4.07668 4.18373 4.12329 4.13712C4.16991 4.09051 4.20341 4.03244 4.22042 3.96875C4.22042 3.9665 4.22642 3.94325 4.22942 3.87275C4.23317 3.78875 4.23317 3.67775 4.23317 3.49775C4.23317 3.31775 4.23317 3.20525 4.22942 3.12125C4.22567 3.041 4.21967 3.02225 4.22042 3.02525C4.20341 2.96156 4.16991 2.90349 4.12329 2.85688C4.07668 2.81027 4.01861 2.77676 3.95492 2.75975C3.95792 2.7605 3.93917 2.7545 3.85892 2.7515C3.77492 2.747 3.66392 2.747 3.48392 2.747C3.30392 2.747 3.19142 2.747 3.10742 2.7515C3.02717 2.7545 3.00842 2.7605 3.01142 2.75975C2.94774 2.77676 2.88966 2.81027 2.84305 2.85688C2.79644 2.90349 2.76294 2.96156 2.74592 3.02525C2.74667 3.023 2.74067 3.04175 2.73692 3.12125C2.73317 3.20525 2.73317 3.31625 2.73317 3.497C2.73317 3.67775 2.73317 3.7895 2.73692 3.87275C2.74067 3.953 2.74667 3.97175 2.74592 3.96875C2.76294 4.03244 2.79644 4.09051 2.84305 4.13712C2.88966 4.18373 2.94774 4.21724 3.01142 4.23425C3.0432 4.23931 3.07526 4.24231 3.10742 4.24325ZM11.0574 2.83325C11.0192 2.9765 11.0192 3.1505 11.0192 3.49925C11.0192 3.848 11.0192 4.022 11.0574 4.16525C11.1617 4.55375 11.4647 4.85675 11.8524 4.96025C11.9957 4.9985 12.1697 4.9985 12.5184 4.9985C12.8672 4.9985 13.0419 4.9985 13.1844 4.96025C13.375 4.90911 13.5488 4.80872 13.6884 4.66918C13.8279 4.52964 13.9283 4.35585 13.9794 4.16525C14.0177 4.022 14.0177 3.848 14.0177 3.49925C14.0177 3.1505 14.0177 2.9765 13.9794 2.83325C13.9283 2.64265 13.8279 2.46886 13.6884 2.32932C13.5488 2.18978 13.375 2.08939 13.1844 2.03825C13.0412 2 12.8672 2 12.5184 2C12.1697 2 11.9949 2 11.8524 2.03825C11.6618 2.08939 11.488 2.18978 11.3485 2.32932C11.2089 2.46886 11.1086 2.64265 11.0574 2.83325ZM12.1449 4.24325C12.2289 4.247 12.3399 4.247 12.5207 4.247C12.7014 4.247 12.8124 4.247 12.8964 4.24325C12.9286 4.24231 12.9606 4.23931 12.9924 4.23425C13.0559 4.21719 13.1137 4.18375 13.1602 4.13728C13.2067 4.09082 13.2401 4.03296 13.2572 3.9695C13.2572 3.96725 13.2624 3.944 13.2662 3.8735C13.2699 3.7895 13.2699 3.6785 13.2699 3.4985C13.2699 3.3185 13.2699 3.206 13.2662 3.122C13.2652 3.08984 13.2622 3.05777 13.2572 3.026C13.24 2.96245 13.2065 2.90453 13.1599 2.85806C13.1133 2.81159 13.0553 2.7782 12.9917 2.76125C12.9947 2.762 12.9752 2.756 12.8957 2.753C12.8117 2.7485 12.7007 2.7485 12.5199 2.7485C12.3392 2.7485 12.2274 2.7485 12.1442 2.753C12.0692 2.756 12.0482 2.76125 12.0482 2.76125C11.9847 2.77831 11.9269 2.81175 11.8804 2.85822C11.8339 2.90468 11.8005 2.96254 11.7834 3.026C11.7834 3.026 11.7782 3.047 11.7744 3.122C11.7707 3.206 11.7707 3.317 11.7707 3.49775C11.7707 3.6785 11.7707 3.79025 11.7744 3.8735C11.7782 3.9485 11.7834 3.971 11.7834 3.9695C11.8006 4.03305 11.8341 4.09097 11.8807 4.13744C11.9273 4.18391 11.9853 4.2173 12.0489 4.23425C12.0807 4.23931 12.1128 4.24231 12.1449 4.24325ZM6.48242 3.50075C6.48242 3.152 6.48242 2.978 6.52067 2.83475C6.57182 2.64415 6.6722 2.47036 6.81174 2.33082C6.95128 2.19128 7.12507 2.09089 7.31567 2.03975C7.45892 2.0015 7.63292 2.0015 7.98242 2.0015C8.33192 2.0015 8.50517 2.0015 8.64842 2.03975C9.03692 2.144 9.33992 2.447 9.44342 2.83475C9.48167 2.978 9.48167 3.152 9.48167 3.50075C9.48167 3.8495 9.48167 4.0235 9.44417 4.16675C9.39303 4.35735 9.29265 4.53114 9.15311 4.67068C9.01356 4.81022 8.83977 4.91061 8.64917 4.96175C8.50517 5 8.33117 5 7.98242 5C7.63367 5 7.45967 5 7.31642 4.96175C7.12582 4.91061 6.95203 4.81022 6.81249 4.67068C6.67295 4.53114 6.57257 4.35735 6.52142 4.16675C6.48242 4.0235 6.48242 3.8495 6.48242 3.50075ZM7.98242 4.25075C7.80092 4.25075 7.69067 4.25075 7.60667 4.247C7.57451 4.24606 7.54245 4.24306 7.51067 4.238C7.44699 4.22099 7.38891 4.18748 7.3423 4.14087C7.29569 4.09426 7.26219 4.03619 7.24517 3.9725C7.24592 3.9755 7.23992 3.95675 7.23617 3.8765C7.23242 3.7925 7.23242 3.68075 7.23242 3.50075C7.23242 3.32075 7.23242 3.209 7.23617 3.125C7.23992 3.05 7.24517 3.029 7.24517 3.029C7.26224 2.96554 7.29568 2.90768 7.34214 2.86122C7.38861 2.81475 7.44646 2.78131 7.50992 2.76425C7.50692 2.765 7.52567 2.759 7.60592 2.75525C7.68992 2.7515 7.80092 2.7515 7.98167 2.7515C8.16242 2.7515 8.27417 2.7515 8.35742 2.75525C8.43767 2.759 8.45642 2.765 8.45342 2.76425C8.51711 2.78126 8.57518 2.81477 8.62179 2.86138C8.66841 2.90799 8.70191 2.96606 8.71892 3.02975C8.71892 3.02975 8.72417 3.05075 8.72792 3.12575C8.73167 3.20975 8.73167 3.32075 8.73167 3.5015C8.73167 3.68225 8.73167 3.79325 8.72792 3.87725C8.72698 3.90941 8.72398 3.94148 8.71892 3.97325C8.70191 4.03694 8.66841 4.09501 8.62179 4.14162C8.57518 4.18823 8.51711 4.22174 8.45342 4.23875C8.45342 4.23875 8.43242 4.244 8.35742 4.24775C8.27342 4.25075 8.16242 4.25075 7.98242 4.25075ZM2.02067 7.33325C1.98242 7.4765 1.98242 7.6505 1.98242 7.99925C1.98242 8.348 1.98242 8.522 2.02067 8.66525C2.07182 8.85585 2.1722 9.02964 2.31174 9.16918C2.45128 9.30873 2.62507 9.40911 2.81567 9.46025C2.95892 9.4985 3.13292 9.4985 3.48167 9.4985C3.83042 9.4985 4.00442 9.4985 4.14767 9.46025C4.33827 9.40911 4.51206 9.30873 4.65161 9.16918C4.79115 9.02964 4.89153 8.85585 4.94267 8.66525C4.98092 8.522 4.98092 8.348 4.98092 7.99925C4.98092 7.6505 4.98092 7.4765 4.94342 7.33325C4.89228 7.14265 4.7919 6.96886 4.65236 6.82932C4.51281 6.68977 4.33902 6.58939 4.14842 6.53825C4.00442 6.5 3.83042 6.5 3.48167 6.5C3.13292 6.5 2.95892 6.5 2.81567 6.53825C2.62507 6.58939 2.45128 6.68977 2.31174 6.82932C2.1722 6.96886 2.07182 7.14265 2.02067 7.33325ZM3.10817 8.74325C3.19217 8.747 3.30317 8.747 3.48392 8.747C3.66467 8.747 3.77642 8.747 3.85967 8.74325C3.93467 8.7395 3.95567 8.73425 3.95567 8.73425C4.01913 8.71719 4.07699 8.68375 4.12345 8.63728C4.16992 8.59082 4.20336 8.53296 4.22042 8.4695C4.22042 8.46725 4.22567 8.444 4.22942 8.3735C4.23317 8.2895 4.23317 8.1785 4.23317 7.9985C4.23317 7.8185 4.23317 7.706 4.22942 7.622C4.22567 7.547 4.22042 7.526 4.22042 7.526C4.20336 7.46254 4.16992 7.40468 4.12345 7.35822C4.07699 7.31175 4.01913 7.27831 3.95567 7.26125C3.95867 7.262 3.93992 7.256 3.85967 7.253C3.77567 7.2485 3.66467 7.2485 3.48392 7.2485C3.30317 7.2485 3.19217 7.2485 3.10817 7.253C3.07603 7.25369 3.04396 7.25645 3.01217 7.26125C2.94871 7.27831 2.89086 7.31175 2.84439 7.35822C2.79793 7.40468 2.76449 7.46254 2.74742 7.526C2.74817 7.52375 2.74217 7.5425 2.73842 7.622C2.73467 7.706 2.73467 7.817 2.73467 7.99775C2.73467 8.1785 2.73467 8.29025 2.73842 8.3735C2.74217 8.45375 2.74817 8.4725 2.74742 8.4695C2.76444 8.53319 2.79794 8.59126 2.84455 8.63787C2.89116 8.68448 2.94924 8.71799 3.01292 8.735C3.0447 8.74006 3.07676 8.74306 3.10892 8.744L3.10817 8.74325ZM10.9824 8.00075C10.9824 7.652 10.9824 7.478 11.0207 7.33475C11.0718 7.14415 11.1722 6.97036 11.3117 6.83082C11.4513 6.69127 11.6251 6.59089 11.8157 6.53975C11.9589 6.5015 12.1329 6.5015 12.4817 6.5015C12.8304 6.5015 13.0052 6.5015 13.1477 6.53975C13.5362 6.644 13.8392 6.947 13.9427 7.33475C13.9809 7.478 13.9809 7.652 13.9809 8.00075C13.9809 8.3495 13.9809 8.5235 13.9434 8.66675C13.8923 8.85735 13.7919 9.03114 13.6524 9.17068C13.5128 9.31023 13.339 9.41061 13.1484 9.46175C13.0044 9.5 12.8304 9.5 12.4817 9.5C12.1329 9.5 11.9582 9.5 11.8157 9.46175C11.6251 9.41061 11.4513 9.31023 11.3117 9.17068C11.1722 9.03114 11.0718 8.85735 11.0207 8.66675C10.9824 8.5235 10.9824 8.3495 10.9824 8.00075ZM12.4824 8.75075C12.3009 8.75075 12.1907 8.75075 12.1067 8.747C12.0745 8.74606 12.0424 8.74306 12.0107 8.738C11.947 8.72099 11.8889 8.68748 11.8423 8.64087C11.7957 8.59426 11.7622 8.53619 11.7452 8.4725C11.7452 8.4725 11.7399 8.4515 11.7362 8.3765C11.7324 8.2925 11.7324 8.1815 11.7324 8.00075C11.7324 7.82 11.7324 7.709 11.7362 7.625C11.7371 7.59284 11.7401 7.56077 11.7452 7.529C11.7623 7.46545 11.7959 7.40753 11.8425 7.36106C11.8891 7.31459 11.9471 7.2812 12.0107 7.26425C12.0077 7.265 12.0264 7.259 12.1067 7.25525C12.1907 7.2515 12.3017 7.2515 12.4824 7.2515C12.6632 7.2515 12.7749 7.2515 12.8582 7.25525C12.9384 7.259 12.9572 7.265 12.9542 7.26425C13.0179 7.28126 13.0759 7.31477 13.1225 7.36138C13.1692 7.40799 13.2027 7.46606 13.2197 7.52975C13.2197 7.52975 13.2249 7.55 13.2287 7.62575C13.2324 7.70975 13.2324 7.82075 13.2324 8.0015C13.2324 8.18225 13.2324 8.29325 13.2287 8.37725C13.2277 8.40941 13.2247 8.44148 13.2197 8.47325C13.2027 8.53694 13.1692 8.59501 13.1225 8.64162C13.0759 8.68823 13.0179 8.72174 12.9542 8.73875C12.9572 8.738 12.9384 8.744 12.8582 8.74775C12.7742 8.7515 12.6632 8.7515 12.4832 8.7515L12.4824 8.75075ZM6.51992 7.33325C6.48167 7.4765 6.48167 7.6505 6.48167 7.99925C6.48167 8.348 6.48167 8.522 6.51992 8.66525C6.62417 9.05375 6.92717 9.35675 7.31492 9.46025C7.45817 9.4985 7.63217 9.4985 7.98092 9.4985C8.32967 9.4985 8.50367 9.4985 8.64692 9.46025C8.83752 9.40911 9.01131 9.30873 9.15086 9.16918C9.2904 9.02964 9.39078 8.85585 9.44192 8.66525C9.48017 8.522 9.48017 8.348 9.48017 7.99925C9.48017 7.6505 9.48017 7.4765 9.44192 7.33325C9.39078 7.14265 9.2904 6.96886 9.15086 6.82932C9.01131 6.68977 8.83752 6.58939 8.64692 6.53825C8.50367 6.5 8.32967 6.5 7.98092 6.5C7.63217 6.5 7.45817 6.5 7.31492 6.53825C7.12432 6.58939 6.95053 6.68977 6.81099 6.82932C6.67145 6.96886 6.57107 7.14265 6.51992 7.33325ZM7.60742 8.74325C7.69142 8.747 7.80242 8.747 7.98317 8.747C8.16392 8.747 8.27492 8.747 8.35892 8.74325C8.43917 8.7395 8.45792 8.7335 8.45492 8.73425C8.51861 8.71724 8.57668 8.68373 8.62329 8.63712C8.66991 8.59051 8.70341 8.53244 8.72042 8.46875C8.72042 8.4665 8.72567 8.44325 8.72942 8.37275C8.73317 8.28875 8.73317 8.17775 8.73317 7.99775C8.73317 7.81775 8.73317 7.70525 8.72942 7.62125C8.72567 7.541 8.71967 7.52225 8.72042 7.52525C8.70341 7.46156 8.66991 7.40349 8.62329 7.35688C8.57668 7.31027 8.51861 7.27676 8.45492 7.25975C8.45792 7.2605 8.43917 7.2545 8.35892 7.2515C8.27492 7.247 8.16392 7.247 7.98317 7.247C7.80242 7.247 7.69142 7.247 7.60742 7.2515C7.52717 7.2545 7.50842 7.2605 7.51142 7.25975C7.44774 7.27676 7.38966 7.31027 7.34305 7.35688C7.29644 7.40349 7.26294 7.46156 7.24592 7.52525C7.24667 7.523 7.24067 7.54175 7.23692 7.62125C7.23317 7.70525 7.23317 7.81625 7.23317 7.997C7.23317 8.17775 7.23317 8.2895 7.23692 8.37275C7.24067 8.453 7.24667 8.47175 7.24592 8.46875C7.26294 8.53244 7.29644 8.59051 7.34305 8.63712C7.38966 8.68373 7.44774 8.71724 7.51142 8.73425C7.5432 8.73931 7.57526 8.74231 7.60742 8.74325ZM1.98242 12.5008C1.98242 12.152 1.98242 11.9773 2.02067 11.8348C2.07182 11.6442 2.1722 11.4704 2.31174 11.3308C2.45128 11.1913 2.62507 11.0909 2.81567 11.0398C2.95892 11.0015 3.13292 11.0015 3.48167 11.0015C3.83042 11.0015 4.00442 11.0015 4.14767 11.0398C4.53617 11.144 4.83917 11.447 4.94267 11.8348C4.98092 11.978 4.98092 12.152 4.98092 12.5008C4.98092 12.8495 4.98092 13.0242 4.94342 13.1667C4.89228 13.3573 4.7919 13.5311 4.65236 13.6707C4.51281 13.8102 4.33902 13.9106 4.14842 13.9618C4.00442 14 3.83042 14 3.48167 14C3.13292 14 2.95892 14 2.81567 13.9618C2.62507 13.9106 2.45128 13.8102 2.31174 13.6707C2.1722 13.5311 2.07182 13.3573 2.02067 13.1667C1.98242 13.0235 1.98242 12.8495 1.98242 12.5008ZM3.48242 13.2508C3.30092 13.2508 3.19067 13.2508 3.10667 13.247C3.07451 13.2461 3.04245 13.2431 3.01067 13.238C2.94699 13.221 2.88891 13.1875 2.8423 13.1409C2.79569 13.0943 2.76219 13.0362 2.74517 12.9725C2.74592 12.9755 2.73992 12.9568 2.73617 12.8765C2.73242 12.7925 2.73242 12.6815 2.73242 12.5008C2.73242 12.32 2.73242 12.209 2.73617 12.125C2.73992 12.05 2.74517 12.029 2.74517 12.029C2.76224 11.9655 2.79568 11.9077 2.84214 11.8612C2.88861 11.8148 2.94646 11.7813 3.00992 11.7643C3.00992 11.7643 3.03092 11.759 3.10592 11.7552C3.18992 11.7515 3.30092 11.7515 3.48167 11.7515C3.66242 11.7515 3.77417 11.7515 3.85742 11.7552C3.93242 11.759 3.95492 11.7643 3.95342 11.7643C4.01697 11.7814 4.07489 11.8149 4.12136 11.8615C4.16783 11.9081 4.20122 11.9662 4.21817 12.0298C4.21817 12.0298 4.22342 12.0508 4.22717 12.1258C4.23092 12.2098 4.23092 12.3208 4.23092 12.5015C4.23092 12.6823 4.23092 12.794 4.22717 12.8773C4.22623 12.9094 4.22323 12.9415 4.21817 12.9733C4.20116 13.0369 4.16766 13.095 4.12104 13.1416C4.07443 13.1882 4.01636 13.2217 3.95267 13.2388C3.95267 13.2388 3.93242 13.244 3.85667 13.2478C3.77267 13.2508 3.66242 13.2508 3.48242 13.2508ZM11.0574 11.8258C11.0192 11.969 11.0192 12.143 11.0192 12.4918C11.0192 12.8405 11.0192 13.0153 11.0574 13.1578C11.1617 13.5463 11.4647 13.8493 11.8524 13.9528C11.9957 13.991 12.1697 13.991 12.5184 13.991C12.8672 13.991 13.0419 13.991 13.1844 13.9528C13.375 13.9016 13.5488 13.8012 13.6884 13.6617C13.8279 13.5221 13.9283 13.3483 13.9794 13.1578C14.0177 13.0145 14.0177 12.8405 14.0177 12.4918C14.0177 12.143 14.0177 11.9683 13.9794 11.8258C13.9283 11.6352 13.8279 11.4614 13.6884 11.3218C13.5488 11.1823 13.375 11.0819 13.1844 11.0308C13.0412 10.9925 12.8672 10.9925 12.5184 10.9925C12.1697 10.9925 11.9949 10.9925 11.8524 11.0308C11.6618 11.0819 11.488 11.1823 11.3485 11.3218C11.2089 11.4614 11.1086 11.6352 11.0574 11.8258ZM12.1449 13.2357C12.2289 13.2395 12.3399 13.2395 12.5207 13.2395C12.7014 13.2395 12.8124 13.2395 12.8964 13.2357C12.9714 13.2327 12.9924 13.2268 12.9924 13.2268C13.056 13.2096 13.1139 13.1761 13.1604 13.1295C13.2068 13.0829 13.2402 13.0248 13.2572 12.9613C13.2572 12.959 13.2624 12.9358 13.2662 12.8653C13.2699 12.7813 13.2699 12.6703 13.2699 12.4903C13.2699 12.3103 13.2699 12.1978 13.2662 12.1138C13.2624 12.0335 13.2564 12.0148 13.2572 12.0178C13.2402 11.9541 13.2067 11.896 13.16 11.8494C13.1134 11.8028 13.0554 11.7693 12.9917 11.7523C12.9947 11.753 12.9759 11.7478 12.8957 11.744C12.8117 11.7403 12.7007 11.7395 12.5199 11.7395C12.3392 11.7395 12.2282 11.7395 12.1442 11.744C12.0639 11.7478 12.0452 11.753 12.0482 11.7523C11.9845 11.7693 11.9264 11.8028 11.8798 11.8494C11.8332 11.896 11.7997 11.9541 11.7827 12.0178C11.7834 12.0155 11.7774 12.0343 11.7737 12.1138C11.7699 12.1978 11.7699 12.3088 11.7699 12.4895C11.7699 12.6703 11.7699 12.782 11.7737 12.8653C11.7774 12.9455 11.7834 12.9643 11.7827 12.9613C11.7997 13.0249 11.8332 13.083 11.8798 13.1296C11.9264 13.1762 11.9845 13.2097 12.0482 13.2268C12.0799 13.2318 12.112 13.2348 12.1442 13.2357H12.1449ZM6.48242 12.5008C6.48242 12.152 6.48242 11.9773 6.52067 11.8348C6.57182 11.6442 6.6722 11.4704 6.81174 11.3308C6.95128 11.1913 7.12507 11.0909 7.31567 11.0398C7.45892 11.0015 7.63292 11.0015 7.98167 11.0015C8.33042 11.0015 8.50442 11.0015 8.64767 11.0398C9.03617 11.144 9.33917 11.447 9.44267 11.8348C9.48092 11.978 9.48092 12.152 9.48092 12.5008C9.48092 12.8495 9.48092 13.0242 9.44342 13.1667C9.39228 13.3573 9.2919 13.5311 9.15235 13.6707C9.01281 13.8102 8.83902 13.9106 8.64842 13.9618C8.50442 14 8.33042 14 7.98167 14C7.63292 14 7.45892 14 7.31567 13.9618C7.12507 13.9106 6.95128 13.8102 6.81174 13.6707C6.6722 13.5311 6.57182 13.3573 6.52067 13.1667C6.48242 13.0235 6.48242 12.8495 6.48242 12.5008ZM7.98242 13.2508C7.80092 13.2508 7.69067 13.2508 7.60667 13.247C7.57451 13.2461 7.54245 13.2431 7.51067 13.238C7.44699 13.221 7.38891 13.1875 7.3423 13.1409C7.29569 13.0943 7.26219 13.0362 7.24517 12.9725C7.24592 12.9755 7.23992 12.9568 7.23617 12.8765C7.23242 12.7925 7.23242 12.6815 7.23242 12.5008C7.23242 12.32 7.23242 12.209 7.23617 12.125C7.23992 12.0447 7.24592 12.026 7.24517 12.029C7.26219 11.9653 7.29569 11.9072 7.3423 11.8606C7.38891 11.814 7.44699 11.7805 7.51067 11.7635C7.50767 11.7643 7.52642 11.7583 7.60667 11.7545C7.69067 11.7508 7.80167 11.7508 7.98242 11.7508C8.16317 11.7508 8.27417 11.7508 8.35817 11.7545C8.39033 11.7554 8.4224 11.7584 8.45417 11.7635C8.51772 11.7806 8.57564 11.8142 8.62211 11.8608C8.66858 11.9074 8.70197 11.9654 8.71892 12.029C8.71817 12.026 8.72417 12.0455 8.72792 12.125C8.73167 12.209 8.73167 12.32 8.73167 12.5008C8.73167 12.6815 8.73167 12.7933 8.72792 12.8765C8.72698 12.9087 8.72398 12.9407 8.71892 12.9725C8.70191 13.0362 8.66841 13.0943 8.62179 13.1409C8.57518 13.1875 8.51711 13.221 8.45342 13.238C8.42184 13.2444 8.38965 13.2474 8.35742 13.247C8.27342 13.2508 8.16317 13.2508 7.98242 13.2508Z" fill="white"/>
</svg>
