<svg width="20" height="21" viewBox="0 0 20 21" fill="none" xmlns="http://www.w3.org/2000/svg">
<path d="M4.16667 18.8333C3.70833 18.8333 3.31611 18.6702 2.99 18.3441C2.66389 18.018 2.50056 17.6255 2.5 17.1666V3.83329C2.5 3.37496 2.66333 2.98274 2.99 2.65663C3.31667 2.33051 3.70889 2.16718 4.16667 2.16663H14.1667C14.625 2.16663 15.0175 2.32996 15.3442 2.65663C15.6708 2.98329 15.8339 3.37551 15.8333 3.83329V8.83329C15.8333 9.0694 15.7533 9.26746 15.5933 9.42746C15.4333 9.58746 15.2356 9.66718 15 9.66663C14.7644 9.66607 14.5667 9.58607 14.4067 9.42663C14.2467 9.26718 14.1667 9.0694 14.1667 8.83329V3.83329H10V8.93746C10 9.09024 9.93056 9.20829 9.79167 9.29163C9.65278 9.37496 9.51389 9.37496 9.375 9.29163L7.91667 8.41663L6.45833 9.29163C6.31944 9.37496 6.18056 9.37496 6.04167 9.29163C5.90278 9.20829 5.83333 9.09024 5.83333 8.93746V3.83329H4.16667V17.1666H8.33333C8.56944 17.1666 8.7675 17.2466 8.9275 17.4066C9.0875 17.5666 9.16722 17.7644 9.16667 18C9.16611 18.2355 9.08611 18.4336 8.92667 18.5941C8.76722 18.7547 8.56944 18.8344 8.33333 18.8333H4.16667ZM15 19.6666C13.8472 19.6666 12.8647 19.2602 12.0525 18.4475C11.2403 17.6347 10.8339 16.6522 10.8333 15.5C10.8328 14.3477 11.2392 13.3652 12.0525 12.5525C12.8658 11.7397 13.8483 11.3333 15 11.3333C16.1517 11.3333 17.1344 11.7397 17.9483 12.5525C18.7622 13.3652 19.1683 14.3477 19.1667 15.5C19.165 16.6522 18.7586 17.635 17.9475 18.4483C17.1364 19.2616 16.1539 19.6677 15 19.6666ZM14.6042 17.1875L16.7292 15.8541C16.8681 15.7708 16.9375 15.6527 16.9375 15.5C16.9375 15.3472 16.8681 15.2291 16.7292 15.1458L14.6042 13.8125C14.4653 13.7291 14.3228 13.7255 14.1767 13.8016C14.0306 13.8777 13.9578 13.9994 13.9583 14.1666V16.8333C13.9583 17 14.0314 17.1216 14.1775 17.1983C14.3236 17.275 14.4658 17.2713 14.6042 17.1875Z" fill="white"/>
</svg>
