<svg width="16" height="16" viewBox="0 0 16 16" fill="none" xmlns="http://www.w3.org/2000/svg">
<path d="M6.66623 11.6999L5.48623 12.8466C5.17681 13.156 4.75715 13.3298 4.31957 13.3298C3.88198 13.3298 3.46232 13.156 3.1529 12.8466C2.84348 12.5371 2.66965 12.1175 2.66965 11.6799C2.66965 11.2423 2.84348 10.8227 3.1529 10.5132L6.17957 7.4799C6.47664 7.18186 6.87691 7.00942 7.29757 6.99825C7.71824 6.98708 8.1271 7.13804 8.43957 7.4199L8.51957 7.48657C8.64599 7.61033 8.81639 7.67881 8.9933 7.67694C9.17021 7.67506 9.33913 7.60299 9.4629 7.47657C9.58667 7.35015 9.65515 7.17974 9.65327 7.00283C9.65139 6.82592 9.57932 6.657 9.4529 6.53323C9.41507 6.48475 9.37503 6.43803 9.3329 6.39323C8.7638 5.89811 8.02779 5.6378 7.27394 5.66503C6.5201 5.69226 5.80479 6.005 5.2729 6.5399L2.20623 9.57323C1.68514 10.1404 1.40331 10.887 1.41962 11.6571C1.43592 12.4271 1.74909 13.1611 2.29372 13.7057C2.83835 14.2504 3.57234 14.5635 4.3424 14.5799C5.11245 14.5962 5.85904 14.3143 6.42623 13.7932L7.57957 12.6666C7.69344 12.5423 7.75604 12.3796 7.75477 12.2111C7.7535 12.0425 7.68845 11.8807 7.57271 11.7582C7.45697 11.6357 7.29912 11.5616 7.13094 11.5508C6.96276 11.54 6.79672 11.5932 6.66623 11.6999ZM13.7929 2.20657C13.2321 1.64924 12.4735 1.33643 11.6829 1.33643C10.8923 1.33643 10.1337 1.64924 9.5729 2.20657L8.41957 3.33323C8.30569 3.45747 8.24309 3.62022 8.24436 3.78874C8.24563 3.95727 8.31068 4.11906 8.42643 4.24156C8.54217 4.36406 8.70001 4.43818 8.86819 4.449C9.03637 4.45983 9.20241 4.40655 9.3329 4.2999L10.4862 3.15323C10.7957 2.84381 11.2153 2.66998 11.6529 2.66998C12.0905 2.66998 12.5101 2.84381 12.8196 3.15323C13.129 3.46265 13.3028 3.88232 13.3028 4.3199C13.3028 4.75749 13.129 5.17715 12.8196 5.48657L9.7929 8.5199C9.49582 8.81794 9.09555 8.99038 8.67489 9.00155C8.25423 9.01272 7.84537 8.86176 7.5329 8.5799L7.4529 8.51323C7.32648 8.38947 7.15607 8.32099 6.97916 8.32286C6.80225 8.32474 6.63333 8.39681 6.50957 8.52323C6.3858 8.64965 6.31732 8.82006 6.31919 8.99697C6.32107 9.17388 6.39315 9.3428 6.51957 9.46657C6.56822 9.51586 6.6194 9.56259 6.6729 9.60657C7.24268 10.1002 7.97838 10.3595 8.73177 10.3323C9.48515 10.3051 10.2002 9.99336 10.7329 9.4599L13.7662 6.42657C14.3271 5.86928 14.6447 5.11272 14.6497 4.32207C14.6547 3.53141 14.3467 2.77089 13.7929 2.20657Z" fill="white"/>
</svg>
