<svg width="31" height="31" viewBox="0 0 31 31" fill="none" xmlns="http://www.w3.org/2000/svg">
<path d="M7.81295 28.1999C7.11445 28.1999 6.5167 27.9514 6.01971 27.4544C5.52272 26.9574 5.2738 26.3593 5.27295 25.6599V12.9599C5.27295 12.2614 5.52187 11.6637 6.01971 11.1667C6.51755 10.6697 7.1153 10.4208 7.81295 10.4199H9.08295V7.87991C9.08295 6.12307 9.70229 4.62574 10.941 3.38792C12.1796 2.15009 13.677 1.53075 15.4329 1.52991C17.1889 1.52906 18.6867 2.1484 19.9262 3.38792C21.1657 4.62744 21.7846 6.12477 21.7829 7.87991V10.4199H23.0529C23.7514 10.4199 24.3496 10.6688 24.8475 11.1667C25.3453 11.6645 25.5938 12.2623 25.5929 12.9599V25.6599C25.5929 26.3584 25.3445 26.9566 24.8475 27.4544C24.3505 27.9523 23.7523 28.2008 23.0529 28.1999H7.81295ZM15.4329 21.8499C16.1314 21.8499 16.7296 21.6014 17.2275 21.1044C17.7253 20.6074 17.9738 20.0093 17.9729 19.3099C17.9721 18.6106 17.7236 18.0128 17.2275 17.5167C16.7313 17.0205 16.1331 16.7716 15.4329 16.7699C14.7328 16.7682 14.135 17.0171 13.6397 17.5167C13.1444 18.0162 12.8955 18.6139 12.8929 19.3099C12.8904 20.0059 13.1393 20.604 13.6397 21.1044C14.1401 21.6048 14.7378 21.8533 15.4329 21.8499ZM11.6229 10.4199H19.2429V7.87991C19.2429 6.82157 18.8725 5.92199 18.1317 5.18116C17.3909 4.44032 16.4913 4.06991 15.4329 4.06991C14.3746 4.06991 13.475 4.44032 12.7342 5.18116C11.9934 5.92199 11.6229 6.82157 11.6229 7.87991V10.4199Z" fill="#009BA7"/>
</svg>
