<svg width="337" height="348" viewBox="0 0 337 348" fill="none" xmlns="http://www.w3.org/2000/svg">
<path d="M35.4651 152.143C35.4651 152.143 94.775 149.768 107.592 52.2749C118.974 -34.3082 218.986 5.10127 247.896 39.6153C285.346 84.3254 265.382 161.236 313.828 170.952C362.275 180.668 330.638 288.693 257.1 278.354C165.62 265.491 187.753 318.947 160.291 341.572C140.583 357.811 59.7703 342.179 57.077 283.232C54.8104 233.63 33.8869 233.787 19.0562 228.162C-2.33319 220.05 -15.8108 161.303 35.4651 152.143Z" fill="#D3E7E7"/>
<path d="M237.086 260.415L178.815 202.836L167.277 214.513L225.547 272.092L237.086 260.415Z" fill="#AFECEF"/>
<path d="M259.344 275.887L214.01 231.09C213.757 230.841 213.351 230.843 213.101 231.096L195.942 248.461C195.693 248.713 195.695 249.12 195.948 249.369L241.282 294.166C241.535 294.415 241.941 294.413 242.191 294.16L259.35 276.795C259.599 276.543 259.597 276.136 259.344 275.887Z" fill="#009BA7"/>
<path d="M127.17 231.795C167.258 231.795 199.756 199.297 199.756 159.209C199.756 119.121 167.258 86.623 127.17 86.623C87.0818 86.623 54.584 119.121 54.584 159.209C54.584 199.297 87.0818 231.795 127.17 231.795Z" fill="#009BA7"/>
<path d="M127.17 219.951C160.717 219.951 187.912 192.756 187.912 159.209C187.912 125.662 160.717 98.4668 127.17 98.4668C93.623 98.4668 66.4277 125.662 66.4277 159.209C66.4277 192.756 93.623 219.951 127.17 219.951Z" fill="#D3E7E7"/>
<path d="M269.33 87.5336L206.255 109.262C204.305 109.934 203.268 112.06 203.94 114.01L217.526 153.447C218.198 155.398 220.323 156.434 222.274 155.762L285.349 134.034C287.299 133.362 288.336 131.236 287.664 129.286L274.078 89.8487C273.407 87.8982 271.281 86.8617 269.33 87.5336Z" fill="#009BA7"/>
<path d="M221.379 113.052L214.021 115.586C212.851 115.99 212.229 117.265 212.632 118.435L215.167 125.793C215.57 126.963 216.845 127.585 218.016 127.182L225.373 124.647C226.544 124.244 227.165 122.969 226.762 121.798L224.228 114.441C223.825 113.271 222.549 112.649 221.379 113.052Z" fill="white"/>
<path d="M242.25 127.893L217.777 136.323C217.707 136.348 217.67 136.424 217.694 136.494L218.941 140.113C218.965 140.183 219.041 140.22 219.111 140.196L243.584 131.765C243.654 131.741 243.692 131.665 243.667 131.595L242.421 127.976C242.397 127.906 242.32 127.869 242.25 127.893Z" fill="white"/>
<path d="M245.624 105.035L226.101 111.76C226.045 111.779 226.016 111.841 226.035 111.897L227.039 114.811C227.058 114.867 227.119 114.897 227.175 114.878L246.699 108.153C246.754 108.134 246.784 108.072 246.765 108.016L245.761 105.102C245.741 105.046 245.68 105.015 245.624 105.035Z" fill="white"/>
<path d="M236.371 113.911L228.043 116.78C228.019 116.788 228.012 116.83 228.027 116.874L228.804 119.13C228.819 119.173 228.851 119.202 228.875 119.194L237.202 116.325C237.226 116.317 237.233 116.275 237.218 116.231L236.441 113.976C236.426 113.932 236.394 113.903 236.371 113.911Z" fill="white"/>
<path d="M255.28 131.768L220.353 143.8C220.283 143.824 220.246 143.901 220.27 143.971L221.517 147.589C221.541 147.659 221.617 147.697 221.687 147.672L256.614 135.641C256.685 135.617 256.722 135.54 256.698 135.47L255.451 131.852C255.427 131.781 255.351 131.744 255.28 131.768Z" fill="white"/>
<path d="M122.616 244.589C115.123 241.391 109.787 244.364 108.507 247.362C107.583 249.527 108.988 251.308 110.487 251.947C113.484 253.226 114.088 248.431 119.749 250.847C122.524 252.031 124.223 254.2 123.133 256.754C121.854 259.751 118.011 260.146 115.516 260.918C113.315 261.619 110.234 262.995 108.197 267.769C106.965 270.656 107.386 271.82 109.662 272.791C112.382 273.952 113.458 272.968 113.908 271.912C115.14 269.026 115.906 267.384 119.978 266.3C121.974 265.774 128.303 264.012 130.53 258.794C132.757 253.576 129.72 247.621 122.616 244.589Z" fill="#009BA7"/>
<path d="M108.082 276.642C107.521 276.402 106.918 276.275 106.308 276.269C105.697 276.262 105.092 276.376 104.525 276.604C103.959 276.831 103.443 277.168 103.007 277.595C102.571 278.022 102.223 278.531 101.984 279.092C101.744 279.653 101.617 280.256 101.611 280.867C101.604 281.477 101.718 282.083 101.946 282.649C102.173 283.215 102.51 283.731 102.937 284.167C103.364 284.603 103.872 284.951 104.434 285.191C105.568 285.675 106.847 285.688 107.991 285.229C109.135 284.769 110.049 283.874 110.533 282.741C111.017 281.607 111.03 280.327 110.571 279.184C110.111 278.04 109.216 277.126 108.082 276.642Z" fill="#009BA7"/>
</svg>
