<svg width="11" height="12" viewBox="0 0 11 12" fill="none" xmlns="http://www.w3.org/2000/svg">
<path fill-rule="evenodd" clip-rule="evenodd" d="M0 1.2C0 0.88174 0.126428 0.576515 0.351472 0.351472C0.576516 0.126428 0.88174 0 1.2 0L7.7656 0L10.4 2.6344V10.8C10.4 11.1183 10.2736 11.4235 10.0485 11.6485C9.82349 11.8736 9.51826 12 9.2 12H1.2C0.88174 12 0.576516 11.8736 0.351472 11.6485C0.126428 11.4235 0 11.1183 0 10.8V1.2ZM2 4.8H0.8V8.8H1.6V7.2H2C2.31826 7.2 2.62348 7.07357 2.84853 6.84853C3.07357 6.62348 3.2 6.31826 3.2 6C3.2 5.68174 3.07357 5.37652 2.84853 5.15147C2.62348 4.92643 2.31826 4.8 2 4.8ZM5.2 4.8H4V8.8H5.2C5.51826 8.8 5.82349 8.67357 6.04853 8.44853C6.27357 8.22348 6.4 7.91826 6.4 7.6V6C6.4 5.68174 6.27357 5.37652 6.04853 5.15147C5.82349 4.92643 5.51826 4.8 5.2 4.8ZM7.2 8.8V4.8H9.6V5.6H8V6.4H8.8V7.2H8V8.8H7.2Z" fill="white"/>
</svg>
