<svg width="16" height="16" viewBox="0 0 16 16" fill="none" xmlns="http://www.w3.org/2000/svg">
<path d="M7.33341 3.33324H4.00008C3.64646 3.33324 3.30732 3.47371 3.05727 3.72376C2.80722 3.97381 2.66675 4.31295 2.66675 4.66657V11.9999C2.66675 12.3535 2.80722 12.6927 3.05727 12.9427C3.30732 13.1928 3.64646 13.3332 4.00008 13.3332H11.3334C11.687 13.3332 12.0262 13.1928 12.2762 12.9427C12.5263 12.6927 12.6667 12.3535 12.6667 11.9999V8.66657M11.7241 2.39057C11.8471 2.26322 11.9942 2.16165 12.1569 2.09177C12.3195 2.02189 12.4945 1.98511 12.6715 1.98357C12.8486 1.98203 13.0242 2.01577 13.188 2.08281C13.3519 2.14985 13.5008 2.24885 13.6259 2.37404C13.7511 2.49923 13.8501 2.6481 13.9172 2.81197C13.9842 2.97583 14.018 3.1514 14.0164 3.32844C14.0149 3.50548 13.9781 3.68044 13.9082 3.84311C13.8383 4.00578 13.7368 4.15291 13.6094 4.2759L7.88541 9.9999H6.00008V8.11457L11.7241 2.39057Z" stroke="#777D7D" stroke-width="1.33333" stroke-linecap="round" stroke-linejoin="round"/>
</svg>
