<svg width="16" height="17" viewBox="0 0 16 17" fill="none" xmlns="http://www.w3.org/2000/svg">
<path d="M6.66667 11.8333L4 9.16663L4.94 8.22663L6.66667 9.94663L11.06 5.55329L12 6.49996M8 2.49996C8.17681 2.49996 8.34638 2.5702 8.4714 2.69522C8.59643 2.82025 8.66667 2.98981 8.66667 3.16663C8.66667 3.34344 8.59643 3.51301 8.4714 3.63803C8.34638 3.76305 8.17681 3.83329 8 3.83329C7.82319 3.83329 7.65362 3.76305 7.5286 3.63803C7.40357 3.51301 7.33333 3.34344 7.33333 3.16663C7.33333 2.98981 7.40357 2.82025 7.5286 2.69522C7.65362 2.5702 7.82319 2.49996 8 2.49996ZM12.6667 2.49996H9.88C9.6 1.72663 8.86667 1.16663 8 1.16663C7.13333 1.16663 6.4 1.72663 6.12 2.49996H3.33333C2.97971 2.49996 2.64057 2.64043 2.39052 2.89048C2.14048 3.14053 2 3.47967 2 3.83329V13.1666C2 13.5202 2.14048 13.8594 2.39052 14.1094C2.64057 14.3595 2.97971 14.5 3.33333 14.5H12.6667C13.0203 14.5 13.3594 14.3595 13.6095 14.1094C13.8595 13.8594 14 13.5202 14 13.1666V3.83329C14 3.47967 13.8595 3.14053 13.6095 2.89048C13.3594 2.64043 13.0203 2.49996 12.6667 2.49996Z" fill="white"/>
</svg>
