<svg width="15" height="15" viewBox="0 0 15 15" fill="none" xmlns="http://www.w3.org/2000/svg">
<path fill-rule="evenodd" clip-rule="evenodd" d="M7.49999 0C11.6421 0 15 3.35784 15 7.49999C15 11.6421 11.6421 15 7.49999 15C3.35788 15 0 11.6421 0 7.49999C0 3.35784 3.35788 0 7.49999 0ZM7.49999 9.93751C6.98217 9.93751 6.56244 10.3572 6.56244 10.875C6.56244 11.3928 6.98221 11.8125 7.49995 11.8125C8.0177 11.8125 8.43747 11.3928 8.43747 10.875C8.43747 10.3572 8.0177 9.93751 7.49995 9.93751M7.3748 3.28131C6.64478 3.28131 6.0312 3.48019 5.53479 3.87686C4.94655 4.35203 4.65268 5.05375 4.65268 5.98265H6.24744V5.97196C6.24744 5.61755 6.32208 5.32684 6.47104 5.10008C6.67652 4.79528 7.00988 4.6427 7.4707 4.6427C7.75431 4.6427 7.99569 4.71716 8.19387 4.8658C8.44186 5.07175 8.56628 5.38348 8.56628 5.8018C8.56628 6.06417 8.50215 6.298 8.37468 6.50373C8.26833 6.68802 8.09821 6.86865 7.86393 7.04602C7.36773 7.38629 7.04507 7.72313 6.89643 8.05651C6.76877 8.33298 6.70465 8.77254 6.70465 9.37501H8.20459C8.20459 8.97789 8.25736 8.68033 8.3642 8.48169C8.44914 8.31864 8.62657 8.14507 8.89601 7.96061C9.36411 7.61309 9.69704 7.29039 9.89571 6.99261C10.1366 6.63824 10.2574 6.22336 10.2574 5.74819C10.2574 4.76346 9.8569 4.06498 9.05523 3.65358C8.57342 3.40548 8.01327 3.28124 7.37483 3.28124" fill="white"/>
</svg>
