<svg width="12" height="14" viewBox="0 0 12 14" fill="none" xmlns="http://www.w3.org/2000/svg">
<path d="M4.66667 10.6667L2 8L2.94 7.06L4.66667 8.78L9.06 4.38667L10 5.33333M6 1.33333C6.17681 1.33333 6.34638 1.40357 6.4714 1.5286C6.59643 1.65362 6.66667 1.82319 6.66667 2C6.66667 2.17681 6.59643 2.34638 6.4714 2.4714C6.34638 2.59643 6.17681 2.66667 6 2.66667C5.82319 2.66667 5.65362 2.59643 5.5286 2.4714C5.40357 2.34638 5.33333 2.17681 5.33333 2C5.33333 1.82319 5.40357 1.65362 5.5286 1.5286C5.65362 1.40357 5.82319 1.33333 6 1.33333ZM10.6667 1.33333H7.88C7.6 0.56 6.86667 0 6 0C5.13333 0 4.4 0.56 4.12 1.33333H1.33333C0.979711 1.33333 0.640573 1.47381 0.390524 1.72386C0.140476 1.97391 0 2.31304 0 2.66667V12C0 12.3536 0.140476 12.6928 0.390524 12.9428C0.640573 13.1929 0.979711 13.3333 1.33333 13.3333H10.6667C11.0203 13.3333 11.3594 13.1929 11.6095 12.9428C11.8595 12.6928 12 12.3536 12 12V2.66667C12 2.31304 11.8595 1.97391 11.6095 1.72386C11.3594 1.47381 11.0203 1.33333 10.6667 1.33333Z" fill="white"/>
</svg>
