<svg width="21" height="21" viewBox="0 0 21 21" fill="none" xmlns="http://www.w3.org/2000/svg">
<path d="M18.0001 2.1665H3.00008C2.77907 2.1665 2.56711 2.2543 2.41083 2.41058C2.25455 2.56686 2.16675 2.77882 2.16675 2.99984V17.9998C2.16675 18.2208 2.25455 18.4328 2.41083 18.5891C2.56711 18.7454 2.77907 18.8332 3.00008 18.8332H18.0001C18.2211 18.8332 18.4331 18.7454 18.5893 18.5891C18.7456 18.4328 18.8334 18.2208 18.8334 17.9998V2.99984C18.8334 2.77882 18.7456 2.56686 18.5893 2.41058C18.4331 2.2543 18.2211 2.1665 18.0001 2.1665ZM12.1667 17.1665H3.83341V3.83317H12.1667V17.1665ZM17.1667 17.1665H13.8334V3.83317H17.1667V17.1665Z" fill="#777D7D"/>
</svg>
