<svg width="20" height="21" viewBox="0 0 20 21" fill="none" xmlns="http://www.w3.org/2000/svg">
<path d="M17.5001 2.02661H2.50008C2.27907 2.02661 2.06711 2.11441 1.91083 2.27069C1.75455 2.42697 1.66675 2.63893 1.66675 2.85994V17.8599C1.66675 18.081 1.75455 18.2929 1.91083 18.4492C2.06711 18.6055 2.27907 18.6933 2.50008 18.6933H17.5001C17.7211 18.6933 17.9331 18.6055 18.0893 18.4492C18.2456 18.2929 18.3334 18.081 18.3334 17.8599V2.85994C18.3334 2.63893 18.2456 2.42697 18.0893 2.27069C17.9331 2.11441 17.7211 2.02661 17.5001 2.02661ZM11.6667 17.0266H3.33341V3.69328H11.6667V17.0266ZM16.6667 17.0266H13.3334V3.69328H16.6667V17.0266Z" fill="white"/>
</svg>
