<svg width="56" height="69" viewBox="0 0 56 69" fill="none" xmlns="http://www.w3.org/2000/svg">
<path d="M26.0381 2.25977V4.44141L25.3535 5.12598L26.8232 6.60938V8.52344L25.9209 9.43652L26.7422 10.2637V17.8604L24.5762 20.0264L26.3975 21.8467V29.7568L23.9961 32.1426L26.3975 34.5283V51.2422L25.4551 52.1689L27.2129 53.9268V58.666L24.7021 61.1934L26.7422 63.2334V65.3203L23.6973 68.3652H18.832L13.7764 63.624H12.668L7.72461 59.1514H6.88965L2.10352 54.3643V47.8047L0 45.7012V32.0312L1.96191 30.0693V19.5068L4.12793 17.3408H6.30957V12.6016L11.4258 7.48438H13.5771V5.43066L19.0068 0H23.7939L26.0381 2.25977ZM42.4209 5.43066V7.48438H44.5586L49.6914 12.6016V17.3408H51.873L54.0381 19.5068V30.0693L56 32.0312V45.7012L53.8818 47.8047V54.3643L49.0947 59.1514H48.2783L43.335 63.624H42.2197L37.1641 68.3652H32.2832L29.2539 65.3203V63.2334L31.2939 61.1934L28.7676 58.666V53.9268L30.5254 52.1689L29.5986 51.2422V34.5283L31.9844 32.1426L29.5986 29.7568V21.8467L31.4199 20.0264L29.2539 17.8604V10.2637L30.0742 9.43652L29.1611 8.52344V6.60938L30.6377 5.13086L29.9434 4.44141V2.25977L32.2031 0H36.9902L42.4209 5.43066ZM14.4404 5.79102V14.251L17.1084 16.9346L11.2227 22.8359L14.4404 26.0371V32.0957L17.4219 35.0771H19.9795C20.1589 34.7404 20.5137 34.5108 20.9219 34.5107C21.5112 34.5107 21.9891 34.9889 21.9893 35.5781C21.9893 36.1675 21.5113 36.6455 20.9219 36.6455C20.4598 36.6454 20.0673 36.3514 19.9189 35.9404H17.0615L13.5771 32.4404V26.3984L9.99902 22.8359L15.8994 16.9346L13.5771 14.6113V8.34766H11.7871L7.17285 12.9619V17.3389H8.13184L10.8789 14.5928V13.166C10.5085 12.9986 10.25 12.6272 10.25 12.1943C10.2502 11.6051 10.7281 11.127 11.3174 11.127C11.9066 11.1271 12.3846 11.6051 12.3848 12.1943C12.3848 12.6326 12.1199 13.0085 11.7422 13.1729V14.9531L8.47754 18.2021H7.17285V18.2041H4.47266L2.8252 19.8682V29.8154H5.36816L5.93652 30.3789C6.07761 30.3101 6.2358 30.2705 6.40332 30.2705C6.99267 30.2705 7.47061 30.7486 7.4707 31.3379C7.4707 31.9273 6.99272 32.4053 6.40332 32.4053C5.8139 32.4053 5.33594 31.9273 5.33594 31.3379C5.33595 31.2363 5.35041 31.138 5.37695 31.0449L5.00684 30.6787H2.5752L0.863281 32.376V45.3398L2.94824 47.4414H6.3877L10.9053 51.9453C10.9813 51.9281 11.0604 51.919 11.1416 51.9189C11.7309 51.9189 12.2087 52.3961 12.209 52.9854C12.209 53.5748 11.731 54.0527 11.1416 54.0527C10.5522 54.0527 10.0742 53.5747 10.0742 52.9854C10.0743 52.7981 10.1222 52.6217 10.207 52.4688L7.48242 49.7441L5.32129 51.9072L6.77734 53.3545C6.95066 53.2328 7.16181 53.1612 7.38965 53.1611C7.97906 53.1611 8.45702 53.6391 8.45703 54.2285C8.45703 54.8179 7.97907 55.2959 7.38965 55.2959C6.80033 55.2958 6.32227 54.8179 6.32227 54.2285C6.32227 54.1926 6.32369 54.1571 6.32715 54.1221L4.1123 51.9072L6.87793 49.1406L6.04199 48.3047H2.96582V54.0039L7.25098 58.2881H11.4814C11.6749 58.016 11.9923 57.8379 12.3516 57.8379C12.9408 57.8381 13.418 58.316 13.418 58.9053C13.418 59.4946 12.9408 59.9725 12.3516 59.9727C11.8469 59.9727 11.4247 59.622 11.3135 59.1514H9.01562L12.9971 62.7607H18.5215L20.2168 63.8281H21.7588C21.8986 63.4019 22.2985 63.0939 22.7715 63.0938C23.3609 63.0938 23.8389 63.5717 23.8389 64.1611C23.8386 64.7504 23.3608 65.2275 22.7715 65.2275C22.3758 65.2274 22.0318 65.0115 21.8477 64.6914H19.9658L18.2705 63.624H15.043L19.1777 67.502H23.3525L25.8789 64.9756V63.5947L23.5127 61.2285H22.3027L20.3096 59.2354V55.5947L15.3301 50.6143C15.3049 50.616 15.2795 50.6191 15.2539 50.6191C14.6645 50.6191 14.1865 50.1411 14.1865 49.5518C14.1865 48.9624 14.6645 48.4844 15.2539 48.4844C15.8433 48.4844 16.3213 48.9624 16.3213 49.5518C16.3213 49.7856 16.2447 50.0009 16.1172 50.1768L21.1729 55.2334V58.8906L22.6641 60.3652H24.3057L26.3496 58.3213V54.2871L24.8486 52.7754L23.498 54.126L24.376 54.9971V56.5576C24.7699 56.7146 25.0488 57.0989 25.0488 57.5488C25.0488 58.1382 24.5708 58.6162 23.9814 58.6162C23.3921 58.6162 22.9141 58.1382 22.9141 57.5488C22.9141 57.1278 23.1585 56.7645 23.5127 56.5908V55.3584L21.8799 53.7256L21.8877 53.7168L17.9385 49.7832V47.6621C17.5121 47.5224 17.2033 47.1225 17.2031 46.6494C17.2031 46.0601 17.6812 45.5821 18.2705 45.582C18.8599 45.582 19.3379 46.06 19.3379 46.6494C19.3377 47.045 19.1216 47.389 18.8018 47.5732V49.4219L22.5684 53.1885H23.2119L24.5459 51.8545L24.5537 51.8623L25.5342 50.8818V34.8887L23.3936 32.749L22.3955 33.748H19.084L16.8711 31.5352L16.8799 31.5254L15.9746 30.6201V26.5205C15.6391 26.3407 15.4102 25.9873 15.4102 25.5801C15.4102 24.9907 15.8882 24.5128 16.4775 24.5127C17.067 24.5127 17.5449 24.9907 17.5449 25.5801C17.5448 26.0428 17.2497 26.4351 16.8379 26.583V30.2588L17.4854 30.9209L19.3516 29.0557V25.4307C19.024 25.2484 18.8018 24.8994 18.8018 24.498C18.802 23.9088 19.2798 23.4316 19.8691 23.4316C20.4584 23.4317 20.9363 23.9088 20.9365 24.498C20.9365 24.9663 20.6343 25.3631 20.2148 25.5068V29.4004L18.0957 31.5352L19.4453 32.8848H22.0352L23.0869 31.833L23.0908 31.8379L25.5342 29.3955V22.5635L22.791 25.1895V28.1445C23.142 28.3193 23.3838 28.6809 23.3838 29.0996C23.3836 29.6889 22.9057 30.167 22.3164 30.167C21.7272 30.1669 21.2492 29.6888 21.249 29.0996C21.249 28.6476 21.5308 28.262 21.9277 28.1064V24.8135L25.1025 21.7764L23.7783 20.4521H20.4834L18.0498 22.8848H16.583C16.4302 23.2872 16.0419 23.5732 15.5859 23.5732C14.9966 23.5732 14.5186 23.0952 14.5186 22.5059C14.5188 21.9167 14.9967 21.4395 15.5859 21.4395C16.0006 21.4395 16.3595 21.676 16.5361 22.0215H17.6895L20.1221 19.5889H23.79L25.8789 17.499V10.6094L24.2158 8.94531H22.0498L20.4336 10.5781V12.6172H22.3965L23.5244 13.7354C23.6238 13.7047 23.7295 13.6885 23.8389 13.6885C24.4282 13.6885 24.9062 14.1665 24.9062 14.7559C24.9062 15.3453 24.4283 15.8232 23.8389 15.8232C23.2496 15.8231 22.7715 15.3452 22.7715 14.7559C22.7715 14.5953 22.8076 14.4432 22.8711 14.3066L22.0361 13.4805H20.4336V16.793L18.2393 18.9854C18.3168 19.1333 18.3604 19.3019 18.3604 19.4805C18.3602 20.0696 17.8831 20.5477 17.2939 20.5479C16.7046 20.5479 16.2267 20.0697 16.2266 19.4805C16.2266 18.8911 16.7045 18.4131 17.2939 18.4131C17.384 18.4131 17.4712 18.4253 17.5547 18.4463L19.5703 16.4316V10.2168L21.6885 8.08203H24.5762L25.3135 8.82422L25.96 8.17871V6.9541L24.7422 5.73633L23.7939 6.68555H20.9209L17.7822 9.82422V12.2197C18.11 12.4018 18.3319 12.7509 18.332 13.1523C18.332 13.7418 17.8541 14.2197 17.2646 14.2197C16.6754 14.2195 16.1982 13.7416 16.1982 13.1523C16.1984 12.6844 16.4997 12.2873 16.9189 12.1436V9.47949L19.7002 6.68555H17.8965C17.7403 7.08111 17.3554 7.36133 16.9043 7.36133C16.315 7.36114 15.8379 6.88325 15.8379 6.29395C15.838 5.70475 16.3151 5.22675 16.9043 5.22656C17.324 5.22656 17.686 5.46994 17.8604 5.82227H18.7881V4.75293L20.8281 2.71289H21.8477C22.0351 2.40621 22.372 2.20117 22.7578 2.20117C23.347 2.20123 23.8249 2.67842 23.8252 3.26758C23.8252 3.85696 23.3472 4.3349 22.7578 4.33496C22.2756 4.33496 21.8686 4.01527 21.7363 3.57617H21.1885L19.6504 5.09863V5.82227H23.4336L25.1914 4.08105V2.60547L23.4336 0.863281H19.3525L14.4404 5.79102ZM30.8066 2.60547V4.08105L32.5645 5.82227H36.3506V5.09863L34.8125 3.57617H34.2617C34.1295 4.01526 33.7224 4.33489 33.2402 4.33496C32.6508 4.33496 32.1729 3.857 32.1729 3.26758C32.1731 2.67838 32.651 2.20117 33.2402 2.20117C33.626 2.20123 33.9629 2.40618 34.1504 2.71289H35.1729L37.2139 4.75293V5.82227H38.1367C38.3109 5.46988 38.6731 5.2267 39.0928 5.22656C39.6821 5.22656 40.16 5.70464 40.1602 6.29395C40.1602 6.88336 39.6822 7.36133 39.0928 7.36133C38.6418 7.36118 38.2567 7.08113 38.1006 6.68555H36.2988L39.0801 9.47949V12.1445C39.4986 12.2887 39.7996 12.6849 39.7998 13.1523C39.7998 13.7418 39.3218 14.2197 38.7324 14.2197C38.1431 14.2196 37.665 13.7417 37.665 13.1523C37.6652 12.7503 37.8883 12.4006 38.2168 12.2188V9.82422L35.0781 6.68555H32.2031L31.251 5.74023L30.0244 6.9541V8.17871L30.6816 8.8252L31.4199 8.08203H34.292L36.4258 10.2168V16.4316L38.4404 18.4463C38.5248 18.4248 38.6131 18.4131 38.7041 18.4131C39.2935 18.4131 39.7715 18.8911 39.7715 19.4805C39.7713 20.0697 39.2934 20.5479 38.7041 20.5479C38.1148 20.5478 37.6369 20.0697 37.6367 19.4805C37.6367 19.3026 37.6809 19.1348 37.7578 18.9873L35.5635 16.793V13.4805H33.9473L33.1143 14.3125C33.1762 14.4476 33.2119 14.5975 33.2119 14.7559C33.2119 15.3452 32.7339 15.8232 32.1445 15.8232C31.5551 15.8232 31.0771 15.3453 31.0771 14.7559C31.0772 14.1665 31.5552 13.6885 32.1445 13.6885C32.2575 13.6885 32.3666 13.7057 32.4688 13.7383L33.6016 12.6172H35.5635V10.5781L33.9463 8.94531H31.7803L30.1172 10.6094V17.499L32.2061 19.5889H35.8604L38.293 22.0215H39.4619C39.6386 21.676 39.9975 21.4395 40.4121 21.4395C41.0012 21.4397 41.4783 21.9168 41.4785 22.5059C41.4785 23.0952 41.0014 23.573 40.4121 23.5732C39.9562 23.5732 39.5679 23.2871 39.415 22.8848H37.9473L35.5146 20.4521H32.2178L30.8936 21.7754L34.0713 24.8135V28.1064C34.4676 28.2623 34.748 28.648 34.748 29.0996C34.7479 29.6887 34.2707 30.1667 33.6816 30.167C33.0923 30.167 32.6144 29.6889 32.6143 29.0996C32.6143 28.6803 32.8562 28.3181 33.208 28.1436V25.1895L30.4619 22.5605V29.3955L33.209 32.1426H33.207L33.9492 32.8848H36.5537L37.9043 31.5352L35.7852 29.4004V25.5078C35.3645 25.3647 35.0615 24.9671 35.0615 24.498C35.0617 23.9088 35.5396 23.4316 36.1289 23.4316C36.7181 23.4318 37.1961 23.9089 37.1963 24.498C37.1963 24.8986 36.9748 25.2471 36.6484 25.4297V29.0557L38.5049 30.9121L39.1592 30.2588V26.582C38.7478 26.4339 38.4532 26.0425 38.4531 25.5801C38.4531 24.9908 38.9303 24.513 39.5195 24.5127C40.109 24.5127 40.5869 24.9907 40.5869 25.5801C40.5868 25.9876 40.3582 26.3408 40.0225 26.5205V30.6201L39.1172 31.5244L39.1279 31.5352L36.915 33.748H33.6035L32.6025 32.7471L30.4619 34.8887V50.8818L31.4434 51.8633L31.4521 51.8545L32.7861 53.1885H33.4141L37.1963 49.4219V47.5703C36.879 47.3855 36.6652 47.0431 36.665 46.6494C36.665 46.0601 37.1422 45.5822 37.7314 45.582C38.3209 45.582 38.7988 46.06 38.7988 46.6494C38.7986 47.1242 38.4884 47.5257 38.0596 47.6641V49.7832L34.1104 53.7178L34.1182 53.7256L32.4854 55.3584V56.5908C32.8394 56.7645 33.084 57.1278 33.084 57.5488C33.0839 58.1381 32.6059 58.6161 32.0166 58.6162C31.4272 58.6162 30.9493 58.1382 30.9492 57.5488C30.9492 57.0983 31.2283 56.7132 31.623 56.5566V54.9971L32.5186 54.1006L31.1494 52.7676L29.6309 54.2871V58.3213L31.6855 60.3652H33.3369L34.8281 58.8906V55.2334L39.874 50.1875C39.7417 50.0098 39.6621 49.7903 39.6621 49.5518C39.6621 48.9624 40.1401 48.4844 40.7295 48.4844C41.3189 48.4844 41.7969 48.9624 41.7969 49.5518C41.7969 50.1412 41.3189 50.6191 40.7295 50.6191C40.7091 50.6191 40.689 50.6164 40.6689 50.6152L35.6914 55.5947V59.2354L33.6982 61.2285H32.4834L30.1172 63.5947V64.9756L32.6436 67.502H36.8184L40.9531 63.624H37.7324L36.0371 64.6914H34.1504C33.9662 65.0116 33.6215 65.2275 33.2256 65.2275C32.6364 65.2274 32.1584 64.7503 32.1582 64.1611C32.1582 63.5718 32.6363 63.0939 33.2256 63.0938C33.6988 63.0938 34.0994 63.4017 34.2393 63.8281H35.7861L37.4814 62.7607H43.0059L46.9873 59.1514H44.6846C44.5734 59.6221 44.1512 59.9727 43.6465 59.9727C43.0571 59.9726 42.5791 59.4947 42.5791 58.9053C42.5791 58.3159 43.0571 57.8379 43.6465 57.8379C44.0056 57.8379 44.3222 58.0162 44.5156 58.2881H48.749L53.0186 54.0039V48.3047H49.958L49.1201 49.1416L51.8857 51.9072L49.6699 54.1221C49.6734 54.1571 49.6748 54.1926 49.6748 54.2285C49.6748 54.8179 49.1968 55.2959 48.6074 55.2959C48.0182 55.2956 47.541 54.8178 47.541 54.2285C47.541 53.6393 48.0182 53.1614 48.6074 53.1611C48.8334 53.1611 49.0433 53.2317 49.2158 53.3516L50.6611 51.9072L48.5078 49.7539L45.791 52.4707C45.8753 52.6233 45.9228 52.7987 45.9229 52.9854C45.9229 53.5746 45.4457 54.0525 44.8564 54.0527C44.267 54.0527 43.7891 53.5748 43.7891 52.9854C43.7893 52.3961 44.2672 51.9189 44.8564 51.9189C44.9374 51.919 45.016 51.9282 45.0918 51.9453L49.5977 47.4414H53.0361L55.1367 45.3398V32.376L53.4248 30.6787H50.9912L50.6191 31.0459C50.6456 31.1389 50.6621 31.2364 50.6621 31.3379C50.6621 31.9272 50.184 32.4051 49.5947 32.4053C49.0053 32.4053 48.5273 31.9273 48.5273 31.3379C48.5274 30.7485 49.0054 30.2705 49.5947 30.2705C49.7619 30.2705 49.9197 30.3103 50.0605 30.3789L50.6299 29.8154H53.1748V19.8682L51.5117 18.2041H48.8281V18.2021H47.5068L44.2588 14.9531V13.1797C43.8719 13.0194 43.5986 12.6392 43.5986 12.1943C43.5988 11.6052 44.0769 11.1271 44.666 11.127C45.2553 11.127 45.7332 11.6051 45.7334 12.1943C45.7334 12.6205 45.4832 12.9871 45.1221 13.1582V14.5928L47.8682 17.3389H48.8281V12.9619L44.2139 8.34766H42.4209V14.6113L40.0977 16.9346L45.999 22.8359L42.4209 26.3984V32.4404L38.9365 35.9404H36.0645C35.9161 36.3514 35.5237 36.6455 35.0615 36.6455C34.4721 36.6455 33.9941 36.1675 33.9941 35.5781C33.9943 34.9889 34.4722 34.5107 35.0615 34.5107C35.4697 34.5108 35.8244 34.7404 36.0039 35.0771H38.5752L41.5576 32.0957V26.0371L44.7754 22.8359L38.874 16.9346L41.5576 14.251V5.79102L36.6299 0.863281H32.5645L30.8066 2.60547ZM5.82422 33.458C6.41361 33.458 6.89156 33.936 6.8916 34.5254C6.8916 35.0129 6.56471 35.4232 6.11816 35.5508V39.1436L11.1895 44.4912H13.7988C13.8939 43.9993 14.3261 43.6281 14.8457 43.6279C15.435 43.6279 15.9128 44.1051 15.9131 44.6943C15.9131 45.2838 15.4351 45.7617 14.8457 45.7617C14.5056 45.7616 14.2032 45.6024 14.0078 45.3545H11.5801V49.1562L16.7812 54.3701C16.8713 54.349 16.9651 54.3379 17.0615 54.3379C17.7375 54.3379 18.286 54.8855 18.2861 55.5615C18.2861 56.2376 17.7376 56.7861 17.0615 56.7861C16.3855 56.7861 15.8379 56.2376 15.8379 55.5615C15.8379 55.2971 15.9219 55.0526 16.0645 54.8525L14.5469 53.3379V56.4805L17.1621 59.0957C17.281 59.0499 17.4099 59.0234 17.5449 59.0234C18.1343 59.0234 18.6122 59.5015 18.6123 60.0908C18.6123 60.6802 18.1343 61.1582 17.5449 61.1582C16.9555 61.1582 16.4775 60.6802 16.4775 60.0908C16.4776 59.9554 16.5038 59.8262 16.5498 59.707L13.6836 56.8418V52.4785H13.6846L10.7168 49.5176V45.248L5.25586 39.4883V35.4268C4.95683 35.2377 4.75781 34.9054 4.75781 34.5254C4.75785 33.9361 5.23501 33.4582 5.82422 33.458ZM50.1777 33.458C50.7671 33.458 51.2451 33.936 51.2451 34.5254C51.2451 34.9081 51.0428 35.2423 50.7402 35.4307V39.4883L45.2793 45.248V49.5176L42.3105 52.4785H42.3145V56.8418L39.4473 59.708C39.4931 59.827 39.5205 59.9557 39.5205 60.0908C39.5205 60.6801 39.0424 61.158 38.4531 61.1582C37.8637 61.1582 37.3857 60.6802 37.3857 60.0908C37.3859 59.5015 37.8638 59.0234 38.4531 59.0234C38.5879 59.0235 38.7163 59.0501 38.835 59.0957L41.4512 56.4805V53.335L39.9326 54.8506C40.0761 55.0511 40.1611 55.2962 40.1611 55.5615C40.1611 56.2375 39.6134 56.7859 38.9375 56.7861C38.2614 56.7861 37.7129 56.2376 37.7129 55.5615C37.713 54.8855 38.2615 54.3379 38.9375 54.3379C39.0291 54.3379 39.1183 54.3481 39.2041 54.3672L44.416 49.1562V45.3545H41.9902C41.7948 45.6026 41.4917 45.7617 41.1514 45.7617C40.5621 45.7616 40.084 45.2837 40.084 44.6943C40.0842 44.1052 40.5622 43.6281 41.1514 43.6279C41.6712 43.6279 42.1042 43.9992 42.1992 44.4912H44.8057L49.8613 39.1436V35.5449C49.4265 35.41 49.1104 35.0046 49.1104 34.5254C49.1104 33.9361 49.5884 33.4581 50.1777 33.458ZM9.54297 34.5586C10.1324 34.5586 10.6104 35.0366 10.6104 35.626C10.6103 36.1013 10.2995 36.5035 9.87012 36.6416V39.3154L12.1777 41.6221H17.6865L20.2764 39.0332H22.2412C22.4011 38.6455 22.7821 38.3721 23.2275 38.3721C23.8168 38.3722 24.2949 38.8501 24.2949 39.4395C24.2949 40.0287 23.8168 40.5067 23.2275 40.5068C22.802 40.5068 22.436 40.2568 22.2646 39.8965H20.6367L18.5273 42.0059L21.0312 44.5098H22.4219C22.5854 44.1304 22.963 43.8644 23.4023 43.8643C23.9917 43.8643 24.4696 44.3424 24.4697 44.9316C24.4697 45.5211 23.9918 45.999 23.4023 45.999C22.9706 45.9989 22.5995 45.7421 22.4316 45.373H21.2207V48.1367L22.5615 49.4775C22.6812 49.431 22.8111 49.4043 22.9473 49.4043C23.5366 49.4043 24.0145 49.8824 24.0146 50.4717C24.0146 51.0611 23.5367 51.5391 22.9473 51.5391C22.3579 51.539 21.8799 51.061 21.8799 50.4717C21.8799 50.3374 21.9059 50.2092 21.9512 50.0908L20.3584 48.498V45.0605L17.7832 42.4854H11.8164L9.00684 39.6602V36.5469C8.68985 36.3619 8.47562 36.0195 8.47559 35.626C8.47559 35.0367 8.95368 34.5588 9.54297 34.5586ZM46.4404 34.5586C47.0298 34.5587 47.5078 35.0366 47.5078 35.626C47.5078 36.0151 47.2985 36.3546 46.9873 36.541V39.6602L44.1787 42.4854H38.2188L35.6445 45.0605V48.498L34.0508 50.0908C34.0961 50.2092 34.122 50.3373 34.1221 50.4717C34.1221 51.0611 33.6441 51.5391 33.0547 51.5391C32.4655 51.5388 31.9883 51.061 31.9883 50.4717C31.9884 49.8825 32.4655 49.4045 33.0547 49.4043C33.1906 49.4043 33.3209 49.4303 33.4404 49.4766L34.7812 48.1367V45.373H33.5518C33.3839 45.7421 33.0129 45.9989 32.5811 45.999C31.9916 45.999 31.5137 45.5211 31.5137 44.9316C31.5138 44.3424 31.9917 43.8643 32.5811 43.8643C33.0204 43.8644 33.398 44.1303 33.5615 44.5098H34.9707L37.4707 42.0098L35.3574 39.8965H33.7188C33.5473 40.2567 33.1814 40.5068 32.7559 40.5068C32.1667 40.5066 31.6895 40.0287 31.6895 39.4395C31.6895 38.8502 32.1666 38.3723 32.7559 38.3721C33.2013 38.3721 33.5823 38.6455 33.7422 39.0332H35.7031L38.293 41.6221H43.8174L46.124 39.3154V36.6455C45.689 36.5107 45.3731 36.1052 45.373 35.626C45.373 35.0366 45.851 34.5586 46.4404 34.5586ZM2.96484 35.2041C3.55396 35.2043 4.03101 35.6814 4.03125 36.2705C4.03125 36.7612 3.70006 37.1732 3.24902 37.2979V40.2744L7.20898 44.2344C7.32443 44.1916 7.44977 44.168 7.58008 44.168C8.16922 44.1682 8.6464 44.6462 8.64648 45.2354C8.64648 45.8246 8.16927 46.3025 7.58008 46.3027C6.99066 46.3027 6.5127 45.8248 6.5127 45.2354C6.51272 45.0907 6.54159 44.9529 6.59375 44.8271L4.44922 42.6826L3.10938 44.1221L3.46973 44.4824C3.64249 44.3621 3.85259 44.292 4.0791 44.292C4.66838 44.292 5.14625 44.7692 5.14648 45.3584C5.14648 45.9478 4.66852 46.4258 4.0791 46.4258C3.4897 46.4258 3.01172 45.9478 3.01172 45.3584C3.01173 45.3232 3.01325 45.2883 3.0166 45.2539L1.91602 44.1533L3.83887 42.0723L2.38574 40.6201V37.166C2.09225 36.9759 1.89746 36.6463 1.89746 36.2705C1.8977 35.6813 2.37557 35.2041 2.96484 35.2041ZM53.0332 35.2041C53.6225 35.2041 54.1003 35.6813 54.1006 36.2705C54.1006 36.6528 53.8987 36.9873 53.5967 37.1758V40.6201L52.1523 42.0635L54.084 44.1533L52.9805 45.2549C52.9838 45.289 52.9863 45.3235 52.9863 45.3584C52.9863 45.9477 52.5082 46.4256 51.9189 46.4258C51.3295 46.4258 50.8516 45.9478 50.8516 45.3584C50.8518 44.7692 51.3297 44.292 51.9189 44.292C52.1456 44.2921 52.3555 44.3628 52.5283 44.4834L52.8906 44.1221L51.541 42.6738L49.3896 44.8252C49.4423 44.9514 49.4707 45.09 49.4707 45.2354C49.4707 45.8247 48.9936 46.3025 48.4043 46.3027C47.8149 46.3027 47.3369 45.8248 47.3369 45.2354C47.337 44.646 47.8149 44.168 48.4043 44.168C48.5375 44.168 48.6647 44.1937 48.7822 44.2383L52.7334 40.2744V37.2939C52.2902 37.1642 51.9658 36.7557 51.9658 36.2705C51.9661 35.6813 52.444 35.2041 53.0332 35.2041ZM12.4932 16.3545C13.0826 16.3545 13.5605 16.8325 13.5605 17.4219C13.5604 18.0112 13.0825 18.4893 12.4932 18.4893C12.3833 18.4892 12.2775 18.4713 12.1777 18.4404L8.78809 21.8311H6.55957V24.3232H9.04102L11.0459 26.3281C11.1641 26.283 11.2927 26.2578 11.4268 26.2578C12.0159 26.2581 12.4931 26.736 12.4932 27.3252C12.4932 27.9145 12.016 28.3923 11.4268 28.3926C10.8373 28.3926 10.3594 27.9146 10.3594 27.3252C10.3594 27.1888 10.385 27.0584 10.4316 26.9385L8.67969 25.1865H6.55957V27.6533L16.1387 37.2334C16.302 37.1319 16.4947 37.0723 16.7012 37.0723C17.2903 37.0725 17.7675 37.5504 17.7676 38.1396C17.7676 38.7289 17.2904 39.2068 16.7012 39.207C16.1118 39.207 15.6338 38.7291 15.6338 38.1396C15.6338 38.0807 15.6393 38.0231 15.6484 37.9668L14.7861 37.1045L13.9766 37.9141C14.0013 38.0041 14.0156 38.0984 14.0156 38.1963C14.0156 38.7856 13.5385 39.2635 12.9492 39.2637C12.3598 39.2637 11.8818 38.7857 11.8818 38.1963C11.882 37.607 12.3599 37.1299 12.9492 37.1299C13.1209 37.1299 13.2831 37.1701 13.4268 37.2422L14.1758 36.4941L5.69629 28.0146V20.9678H8.44336L11.5303 17.8799C11.4641 17.741 11.4258 17.5859 11.4258 17.4219C11.4258 16.8326 11.9039 16.3547 12.4932 16.3545ZM43.5039 16.3545C44.0933 16.3545 44.5713 16.8325 44.5713 17.4219C44.5713 17.5857 44.5328 17.7402 44.4668 17.8789L47.5557 20.9678H50.3018V28.0146L41.8291 36.4863L42.5801 37.2383C42.7216 37.1689 42.8806 37.1299 43.0488 37.1299C43.6381 37.1299 44.116 37.607 44.1162 38.1963C44.1162 38.7857 43.6382 39.2637 43.0488 39.2637C42.4595 39.2636 41.9814 38.7857 41.9814 38.1963C41.9815 38.094 41.9956 37.995 42.0225 37.9014L41.2188 37.0967L40.3525 37.9629C40.3622 38.0205 40.3691 38.0793 40.3691 38.1396C40.3691 38.7291 39.8912 39.207 39.3018 39.207C38.7124 39.207 38.2344 38.729 38.2344 38.1396C38.2344 37.5503 38.7124 37.0723 39.3018 37.0723C39.5068 37.0723 39.6978 37.1313 39.8604 37.2314L49.4395 27.6533V25.1865H47.3174L45.5645 26.9385C45.6113 27.0586 45.6387 27.1885 45.6387 27.3252C45.6387 27.9146 45.1607 28.3926 44.5713 28.3926C43.982 28.3925 43.5039 27.9146 43.5039 27.3252C43.504 26.7359 43.982 26.2579 44.5713 26.2578C44.7048 26.2578 44.8324 26.2834 44.9502 26.3281L46.9561 24.3232H49.4395V21.8311H47.1943L43.8193 18.4404C43.7197 18.4712 43.6137 18.4893 43.5039 18.4893C42.9147 18.4891 42.4376 18.0111 42.4375 17.4219C42.4375 16.8326 42.9147 16.3547 43.5039 16.3545Z" fill="url(#paint0_linear_2027_35427)"/>
<defs>
<linearGradient id="paint0_linear_2027_35427" x1="12.2946" y1="4.67243" x2="67.754" y2="86.0887" gradientUnits="userSpaceOnUse">
<stop stop-color="#009BA7"/>
<stop offset="1" stop-color="#041B70"/>
</linearGradient>
</defs>
</svg>
