<svg width="12" height="12" viewBox="0 0 12 12" fill="none" xmlns="http://www.w3.org/2000/svg">
<path fill-rule="evenodd" clip-rule="evenodd" d="M6 12C6.78793 12 7.56815 11.8448 8.2961 11.5433C9.02405 11.2417 9.68549 10.7998 10.2426 10.2426C10.7998 9.68549 11.2417 9.02405 11.5433 8.2961C11.8448 7.56815 12 6.78793 12 6C12 5.21207 11.8448 4.43185 11.5433 3.7039C11.2417 2.97595 10.7998 2.31451 10.2426 1.75736C9.68549 1.20021 9.02405 0.758251 8.2961 0.456723C7.56815 0.155195 6.78793 -1.17411e-08 6 0C4.4087 2.37122e-08 2.88258 0.632141 1.75736 1.75736C0.632141 2.88258 0 4.4087 0 6C0 7.5913 0.632141 9.11742 1.75736 10.2426C2.88258 11.3679 4.4087 12 6 12ZM5.18867 3.32667L8.95133 5.41733C9.05521 5.47509 9.14176 5.55956 9.20202 5.66201C9.26227 5.76445 9.29405 5.88115 9.29405 6C9.29405 6.11885 9.26227 6.23555 9.20202 6.33799C9.14176 6.44044 9.05521 6.52491 8.95133 6.58267L5.18867 8.67333C5.06683 8.74105 4.92942 8.77577 4.79004 8.77403C4.65066 8.77229 4.51416 8.73417 4.39405 8.66344C4.27394 8.59271 4.17439 8.49182 4.10527 8.37078C4.03616 8.24973 3.99987 8.11272 4 7.97333V4.02667C3.99987 3.88728 4.03616 3.75027 4.10527 3.62923C4.17439 3.50818 4.27394 3.40729 4.39405 3.33656C4.51416 3.26583 4.65066 3.22771 4.79004 3.22597C4.92942 3.22423 5.06683 3.25895 5.18867 3.32667Z" fill="white"/>
</svg>
