<svg width="28" height="20" viewBox="0 0 28 20" fill="none" xmlns="http://www.w3.org/2000/svg">
<rect width="28" height="20" rx="2" fill="white"/>
<mask id="mask0_2025_1991" style="mask-type:luminance" maskUnits="userSpaceOnUse" x="0" y="0" width="28" height="20">
<rect width="28" height="20" rx="2" fill="white"/>
</mask>
<g mask="url(#mask0_2025_1991)">
<path fill-rule="evenodd" clip-rule="evenodd" d="M0 5.33333H28V0H0V5.33333Z" fill="#DD172C"/>
<path fill-rule="evenodd" clip-rule="evenodd" d="M0 20H28V14.6666H0V20Z" fill="#DD172C"/>
<path fill-rule="evenodd" clip-rule="evenodd" d="M0 14.6667H28V5.33337H0V14.6667Z" fill="#FFD133"/>
<path fill-rule="evenodd" clip-rule="evenodd" d="M7.33325 9.33333H8.66659V10H7.33325V9.33333Z" fill="#FFEDB1"/>
<path d="M6.39136 8.99963H8.27515C8.47014 8.99963 8.62432 9.16664 8.60815 9.36096L8.43628 11.4166C8.39295 11.9347 7.96005 12.3335 7.44019 12.3336H7.22729C6.7073 12.3336 6.27354 11.9348 6.23022 11.4166L6.05933 9.36096C6.04313 9.16662 6.19634 8.99963 6.39136 8.99963Z" stroke="#A41517" stroke-width="0.666667"/>
<path fill-rule="evenodd" clip-rule="evenodd" d="M6 10H8.66667V10.6667H8L7.33333 12L6.66667 10.6667H6V10Z" fill="#A41517"/>
<rect x="4" y="8" width="1.33333" height="4.66667" rx="0.666667" fill="#A41517"/>
<rect x="9.33325" y="8" width="1.33333" height="4.66667" rx="0.666667" fill="#A41517"/>
<path d="M6 7.73329C6 7.14419 6.47756 6.66663 7.06667 6.66663H7.6C8.1891 6.66663 8.66667 7.14419 8.66667 7.73329C8.66667 7.88057 8.54728 7.99996 8.4 7.99996H6.26667C6.11939 7.99996 6 7.88057 6 7.73329Z" fill="#A41517"/>
</g>
</svg>
