<svg width="28" height="20" viewBox="0 0 28 20" fill="none" xmlns="http://www.w3.org/2000/svg">
<rect width="28" height="20" rx="2" fill="white"/>
<mask id="mask0_2025_1962" style="mask-type:luminance" maskUnits="userSpaceOnUse" x="0" y="0" width="28" height="20">
<rect width="28" height="20" rx="2" fill="white"/>
</mask>
<g mask="url(#mask0_2025_1962)">
<rect width="28" height="20" fill="#0A17A7"/>
<path d="M30.7732 0.294434L21.3259 6.6665H27.9998V13.3335H21.3259L30.7732 19.7056L29.282 21.9165L17.3337 13.8569V21.3335H10.6667V13.856L-1.28247 21.9165L-2.77368 19.7056L6.67358 13.3335H-0.000244141V6.6665H6.67358L-2.77368 0.294434L-1.28247 -1.9165L10.6667 6.14307V-1.3335H17.3337V6.14209L29.282 -1.9165L30.7732 0.294434Z" fill="white"/>
<path d="M18.668 6.33219L31.3333 -2" stroke="#DB1F35" stroke-width="0.666667" stroke-linecap="round"/>
<path d="M20.0127 13.6975L31.3665 21.3503" stroke="#DB1F35" stroke-width="0.666667" stroke-linecap="round"/>
<path d="M8.00562 6.31055L-3.8374 -1.6709" stroke="#DB1F35" stroke-width="0.666667" stroke-linecap="round"/>
<path d="M9.29012 13.6049L-3.8374 22.3104" stroke="#DB1F35" stroke-width="0.666667" stroke-linecap="round"/>
<path fill-rule="evenodd" clip-rule="evenodd" d="M0 12H12V20H16V12H28V8H16V0H12V8H0V12Z" fill="#E6273E"/>
</g>
</svg>
